<?xml version="1.0" encoding="UTF-8"?>
<svg width="178px" height="45px" viewBox="0 0 178 45" version="1.1" xmlns="http://www.w3.org/2000/svg" xmlns:xlink="http://www.w3.org/1999/xlink">
    <!-- Generator: Sketch 52.5 (67469) - http://www.bohemiancoding.com/sketch -->
    <title>discover-amazon</title>
    <desc>Created with Sketch.</desc>
    <g id="Page-1" stroke="none" stroke-width="1" fill="none" fill-rule="evenodd">
        <g id="Home---Best-Practices" transform="translate(-930.000000, -1723.000000)">
            <g id="discover-amazon" transform="translate(930.000000, 1723.000000)">
                <rect id="Rectangle" fill="#FFFFFF" fill-rule="nonzero" x="0" y="0" width="178" height="45" rx="9"></rect>
                <g id="Group" transform="translate(48.821818, 10.140845)" fill="#010101">
                    <g transform="translate(0.000000, 7.605634)">
                        <g transform="translate(0.000000, 4.436620)">
                            <path d="M6.89672727,10.8380282 L6.83345455,9.88732394 C5.63127273,10.8380282 4.36581818,11.3450704 3.10036364,11.3450704 C2.15127273,11.3450704 1.392,11.0915493 0.822545455,10.5211268 C0.253090909,9.95070423 1.42108547e-14,9.25352113 1.42108547e-14,8.3028169 C1.42108547e-14,7.28873239 0.316363636,6.46478873 1.01236364,5.8943662 C1.70836364,5.32394366 2.65745455,5.00704225 3.85963636,5.00704225 C4.80872727,5.00704225 5.75781818,5.1971831 6.83345455,5.51408451 L6.83345455,3.8028169 C6.83345455,2.97887324 6.64363636,2.34507042 6.20072727,1.96478873 C5.82109091,1.58450704 5.12509091,1.3943662 4.176,1.3943662 C3.16363636,1.3943662 2.088,1.58450704 1.01236364,1.96478873 C0.822545455,2.02816901 0.632727273,1.90140845 0.632727273,1.71126761 L0.632727273,1.26760563 C0.632727273,1.14084507 0.696,1.07746479 0.822545455,1.01408451 C1.32872727,0.823943662 1.83490909,0.633802817 2.46763636,0.507042254 C3.16363636,0.38028169 3.79636364,0.316901408 4.42909091,0.316901408 C5.63127273,0.316901408 6.58036364,0.570422535 7.14981818,1.07746479 C7.71927273,1.58450704 8.03563636,2.34507042 8.03563636,3.42253521 L8.03563636,10.8380282 C8.03563636,10.9647887 7.90909091,11.1549296 7.71927273,11.1549296 L7.21309091,11.1549296 C7.02327273,11.0915493 6.89672727,11.028169 6.89672727,10.8380282 Z M3.22690909,10.2676056 C3.73309091,10.2676056 4.30254545,10.1408451 4.93527273,9.95070423 C5.568,9.76056338 6.13745455,9.44366197 6.77018182,9.06338028 L6.77018182,6.46478873 C5.82109091,6.21126761 4.93527273,6.08450704 4.04945455,6.08450704 C2.088,6.08450704 1.13890909,6.84507042 1.13890909,8.36619718 C1.13890909,9 1.32872727,9.50704225 1.64509091,9.82394366 C2.02472727,10.0774648 2.53090909,10.2676056 3.22690909,10.2676056 Z" id="Shape" fill-rule="nonzero"></path>
                            <path d="M24.8029091,11.0915493 C24.6763636,11.0915493 24.4865455,10.9647887 24.4865455,10.7746479 L24.4865455,3.99295775 C24.4865455,3.1056338 24.2967273,2.4084507 23.9803636,2.02816901 C23.664,1.64788732 23.1578182,1.3943662 22.4618182,1.3943662 C21.1330909,1.3943662 19.8676364,1.83802817 18.6654545,2.72535211 C18.7287273,3.04225352 18.7287273,3.35915493 18.7287273,3.67605634 L18.7287273,10.8380282 C18.7287273,10.9647887 18.6021818,11.1549296 18.4123636,11.1549296 L17.7796364,11.1549296 C17.6530909,11.1549296 17.4632727,11.028169 17.4632727,10.8380282 L17.4632727,3.99295775 C17.4632727,3.1056338 17.2734545,2.4084507 16.9570909,2.02816901 C16.6407273,1.64788732 16.1345455,1.3943662 15.4385455,1.3943662 C14.1730909,1.3943662 12.9076364,1.83802817 11.7054545,2.66197183 L11.7054545,10.8380282 C11.7054545,10.9647887 11.5789091,11.1549296 11.3890909,11.1549296 L10.7563636,11.1549296 C10.6298182,11.1549296 10.44,11.028169 10.44,10.8380282 L10.44,0.887323944 C10.44,0.76056338 10.5665455,0.570422535 10.7563636,0.570422535 L11.2625455,0.570422535 C11.3890909,0.570422535 11.5156364,0.697183099 11.5156364,0.823943662 L11.6421818,1.71126761 C12.2749091,1.26760563 12.9076364,0.887323944 13.6036364,0.633802817 C14.2996364,0.38028169 14.9323636,0.253521127 15.6283636,0.253521127 C16.9570909,0.253521127 17.7796364,0.76056338 18.2225455,1.83802817 C18.8552727,1.33098592 19.5512727,0.950704225 20.3105455,0.633802817 C21.0698182,0.38028169 21.7658182,0.190140845 22.5250909,0.190140845 C23.4741818,0.190140845 24.2334545,0.443661972 24.7396364,1.01408451 C25.2458182,1.58450704 25.4989091,2.34507042 25.4989091,3.35915493 L25.4989091,10.7112676 C25.4989091,10.8380282 25.3723636,11.028169 25.1825455,11.028169 L24.8029091,11.028169 L24.8029091,11.0915493 Z" id="Path"></path>
                            <path d="M34.8,10.8380282 L34.7367273,9.88732394 C33.5345455,10.8380282 32.2690909,11.3450704 31.0036364,11.3450704 C30.0545455,11.3450704 29.2952727,11.0915493 28.7258182,10.5211268 C28.1563636,9.95070423 27.9032727,9.25352113 27.9032727,8.3028169 C27.9032727,7.28873239 28.2196364,6.46478873 28.9156364,5.8943662 C29.6116364,5.32394366 30.5607273,5.00704225 31.7629091,5.00704225 C32.712,5.00704225 33.6610909,5.1971831 34.7367273,5.51408451 L34.7367273,3.8028169 C34.7367273,2.97887324 34.5469091,2.34507042 34.104,1.96478873 C33.7243636,1.58450704 33.0283636,1.3943662 32.0792727,1.3943662 C31.0669091,1.3943662 29.9912727,1.58450704 28.9156364,1.96478873 C28.7258182,2.02816901 28.536,1.90140845 28.536,1.71126761 L28.536,1.26760563 C28.536,1.14084507 28.5992727,1.07746479 28.7258182,1.01408451 C29.232,0.823943662 29.7381818,0.633802817 30.3709091,0.507042254 C31.0669091,0.38028169 31.6996364,0.316901408 32.3323636,0.316901408 C33.5345455,0.316901408 34.4836364,0.570422535 35.0530909,1.07746479 C35.6225455,1.58450704 35.9389091,2.34507042 35.9389091,3.42253521 L35.9389091,10.8380282 C35.9389091,10.9647887 35.8123636,11.1549296 35.6225455,11.1549296 L35.1163636,11.1549296 C34.9265455,11.0915493 34.8,11.028169 34.8,10.8380282 Z M31.1301818,10.2676056 C31.6363636,10.2676056 32.2058182,10.1408451 32.8385455,9.95070423 C33.4712727,9.76056338 34.0407273,9.44366197 34.6734545,9.06338028 L34.6734545,6.46478873 C33.7243636,6.21126761 32.8385455,6.08450704 31.9527273,6.08450704 C29.9912727,6.08450704 29.0421818,6.84507042 29.0421818,8.36619718 C29.0421818,9 29.232,9.50704225 29.5483636,9.82394366 C29.928,10.0774648 30.4341818,10.2676056 31.1301818,10.2676056 Z" id="Shape" fill-rule="nonzero"></path>
                            <path d="M37.9003636,10.8380282 L37.9003636,10.1408451 C37.9003636,10.0774648 37.9003636,10.0140845 37.9636364,9.95070423 L44.4807273,1.64788732 L38.4065455,1.64788732 C38.28,1.64788732 38.0901818,1.52112676 38.0901818,1.33098592 L38.0901818,0.887323944 C38.0901818,0.76056338 38.2167273,0.570422535 38.4065455,0.570422535 L45.5563636,0.570422535 C45.6829091,0.570422535 45.8727273,0.697183099 45.8727273,0.887323944 L45.8727273,1.58450704 C45.8727273,1.64788732 45.8727273,1.71126761 45.8094545,1.77464789 L39.2290909,10.0774648 L45.5563636,10.0774648 C45.6829091,10.0774648 45.8727273,10.2042254 45.8727273,10.3943662 L45.8727273,10.8380282 C45.8727273,10.9647887 45.7461818,11.1549296 45.5563636,11.1549296 L38.1534545,11.1549296 C38.0269091,11.0915493 37.9003636,10.9647887 37.9003636,10.8380282 Z" id="Path"></path>
                            <path d="M51.9469091,11.4084507 C50.4283636,11.4084507 49.2261818,10.9014085 48.4036364,9.95070423 C47.5810909,9 47.1381818,7.6056338 47.1381818,5.83098592 C47.1381818,4.05633803 47.5810909,2.72535211 48.4036364,1.71126761 C49.2261818,0.76056338 50.4283636,0.253521127 51.9469091,0.253521127 C53.4654545,0.253521127 54.6676364,0.76056338 55.4901818,1.71126761 C56.3127273,2.66197183 56.7556364,4.05633803 56.7556364,5.83098592 C56.7556364,7.6056338 56.3127273,8.93661972 55.4901818,9.95070423 C54.6676364,10.9647887 53.4654545,11.4084507 51.9469091,11.4084507 Z M51.9469091,10.3309859 C54.3512727,10.3309859 55.5534545,8.80985915 55.5534545,5.83098592 C55.5534545,2.85211268 54.3512727,1.3943662 51.9469091,1.3943662 C49.5425455,1.3943662 48.3403636,2.85211268 48.3403636,5.83098592 C48.3403636,8.87323944 49.5425455,10.3309859 51.9469091,10.3309859 Z" id="Shape" fill-rule="nonzero"></path>
                            <path d="M66.816,11.0915493 C66.6894545,11.0915493 66.4996364,10.9647887 66.4996364,10.7746479 L66.4996364,3.99295775 C66.4996364,3.1056338 66.3098182,2.4084507 65.9934545,2.02816901 C65.6770909,1.64788732 65.1076364,1.3943662 64.3483636,1.3943662 C62.9563636,1.3943662 61.6276364,1.83802817 60.2989091,2.72535211 L60.2989091,10.8380282 C60.2989091,10.9647887 60.1723636,11.1549296 59.9825455,11.1549296 L59.3498182,11.1549296 C59.2232727,11.1549296 59.0334545,11.028169 59.0334545,10.8380282 L59.0334545,0.887323944 C59.0334545,0.76056338 59.16,0.570422535 59.3498182,0.570422535 L59.856,0.570422535 C59.9825455,0.570422535 60.1090909,0.697183099 60.1090909,0.823943662 L60.2356364,1.77464789 C60.9316364,1.26760563 61.6276364,0.887323944 62.3869091,0.633802817 C63.1461818,0.38028169 63.8421818,0.253521127 64.6014545,0.253521127 C65.6138182,0.253521127 66.3730909,0.507042254 66.9425455,1.07746479 C67.4487273,1.58450704 67.7650909,2.4084507 67.7650909,3.42253521 L67.7650909,10.7746479 C67.7650909,10.9014085 67.6385455,11.0915493 67.4487273,11.0915493 L66.816,11.0915493 Z" id="Path"></path>
                        </g>
                        <g transform="translate(74.661818, 0.000000)">
                            <path d="M7.14981818,15.2746479 L7.08654545,14.3239437 C5.88436364,15.2746479 4.61890909,15.7816901 3.35345455,15.7816901 C2.40436364,15.7816901 1.64509091,15.528169 1.07563636,14.9577465 C0.506181818,14.3873239 0.253090909,13.6901408 0.253090909,12.7394366 C0.253090909,11.7253521 0.569454545,10.9014085 1.26545455,10.3309859 C1.96145455,9.76056338 2.91054545,9.44366197 4.11272727,9.44366197 C5.06181818,9.44366197 6.01090909,9.63380282 7.08654545,9.95070423 L7.08654545,8.23943662 C7.08654545,7.41549296 6.89672727,6.78169014 6.45381818,6.40140845 C6.07418182,6.02112676 5.37818182,5.83098592 4.42909091,5.83098592 C3.41672727,5.83098592 2.34109091,6.02112676 1.20218182,6.40140845 C1.01236364,6.46478873 0.822545455,6.33802817 0.822545455,6.14788732 L0.822545455,5.70422535 C0.822545455,5.57746479 0.885818182,5.51408451 1.01236364,5.45070423 C1.51854545,5.26056338 2.02472727,5.07042254 2.65745455,4.94366197 C3.35345455,4.81690141 3.98618182,4.75352113 4.61890909,4.75352113 C5.82109091,4.75352113 6.77018182,5.00704225 7.33963636,5.51408451 C7.90909091,6.02112676 8.22545455,6.78169014 8.22545455,7.85915493 L8.22545455,15.2746479 C8.22545455,15.4014085 8.09890909,15.528169 7.97236364,15.528169 L7.40290909,15.528169 C7.27636364,15.528169 7.14981818,15.4647887 7.14981818,15.2746479 Z M3.48,14.7042254 C3.98618182,14.7042254 4.55563636,14.5774648 5.18836364,14.3873239 C5.82109091,14.1971831 6.39054545,13.8802817 7.02327273,13.5 L7.02327273,10.9014085 C6.07418182,10.6478873 5.18836364,10.5211268 4.30254545,10.5211268 C2.34109091,10.5211268 1.392,11.2816901 1.392,12.8028169 C1.392,13.4366197 1.58181818,13.943662 1.89818182,14.2605634 C2.27781818,14.5140845 2.84727273,14.7042254 3.48,14.7042254 Z" id="Shape" fill-rule="nonzero"></path>
                            <path d="M13.8567273,15.2746479 C13.8567273,15.4014085 13.7934545,15.528169 13.6669091,15.528169 C13.3505455,15.5915493 13.0974545,15.6549296 12.8443636,15.6549296 C12.2749091,15.6549296 11.832,15.4647887 11.5156364,15.1478873 C11.1992727,14.8309859 11.0727273,14.3873239 11.0727273,13.7535211 L11.0727273,0.38028169 C11.0727273,0.253521127 11.1992727,0.126760563 11.3258182,0.126760563 L11.9585455,0.126760563 C12.0850909,0.126760563 12.2116364,0.253521127 12.2116364,0.38028169 L12.2116364,13.7535211 C12.2116364,14.0704225 12.2749091,14.2605634 12.4014545,14.3873239 C12.528,14.5140845 12.7178182,14.5774648 13.0341818,14.5774648 C13.1607273,14.5774648 13.3505455,14.5774648 13.5403636,14.5774648 C13.7301818,14.5774648 13.8567273,14.7042254 13.8567273,14.8309859 L13.8567273,15.2746479 Z" id="Path"></path>
                            <path d="M32.4589091,15.4647887 L29.2952727,10.9647887 L26.1949091,15.4647887 C26.1316364,15.528169 26.0683636,15.5915493 25.9418182,15.5915493 L25.3090909,15.5915493 C25.056,15.5915493 24.9294545,15.3380282 25.056,15.1478873 L28.6625455,10.1408451 L25.4356364,5.51408451 C25.3090909,5.32394366 25.4356364,5.07042254 25.6887273,5.07042254 L26.3847273,5.07042254 C26.448,5.07042254 26.5745455,5.13380282 26.6378182,5.1971831 L29.4218182,9.19014085 L32.2058182,5.1971831 C32.2690909,5.13380282 32.3323636,5.07042254 32.4589091,5.07042254 L33.0916364,5.07042254 C33.3447273,5.07042254 33.4712727,5.32394366 33.3447273,5.51408451 L30.1178182,10.0140845 L33.7243636,15.1478873 C33.8509091,15.3380282 33.7243636,15.5915493 33.4712727,15.5915493 L32.712,15.5915493 C32.5854545,15.528169 32.4589091,15.528169 32.4589091,15.4647887 Z" id="Path"></path>
                            <path d="M41.6334545,15.2746479 L41.5701818,14.3239437 C40.368,15.2746479 39.1025455,15.7816901 37.8370909,15.7816901 C36.888,15.7816901 36.1287273,15.528169 35.5592727,14.9577465 C34.9898182,14.3873239 34.7367273,13.6901408 34.7367273,12.7394366 C34.7367273,11.7253521 35.0530909,10.9014085 35.7490909,10.3309859 C36.4450909,9.76056338 37.3941818,9.44366197 38.5963636,9.44366197 C39.5454545,9.44366197 40.4945455,9.63380282 41.5701818,9.95070423 L41.5701818,8.23943662 C41.5701818,7.41549296 41.3803636,6.78169014 40.9374545,6.40140845 C40.5578182,6.02112676 39.8618182,5.83098592 38.9127273,5.83098592 C37.9003636,5.83098592 36.8247273,6.02112676 35.6858182,6.40140845 C35.496,6.46478873 35.3061818,6.33802817 35.3061818,6.14788732 L35.3061818,5.70422535 C35.3061818,5.57746479 35.3694545,5.51408451 35.496,5.45070423 C36.0021818,5.26056338 36.5083636,5.07042254 37.1410909,4.94366197 C37.8370909,4.81690141 38.4698182,4.75352113 39.1025455,4.75352113 C40.3047273,4.75352113 41.2538182,5.00704225 41.8232727,5.51408451 C42.3927273,6.02112676 42.7090909,6.78169014 42.7090909,7.85915493 L42.7090909,15.2746479 C42.7090909,15.4014085 42.5825455,15.528169 42.456,15.528169 L41.8865455,15.528169 C41.76,15.528169 41.6334545,15.4647887 41.6334545,15.2746479 Z M37.9636364,14.7042254 C38.4698182,14.7042254 39.0392727,14.5774648 39.672,14.3873239 C40.3047273,14.1971831 40.8741818,13.8802817 41.5069091,13.5 L41.5069091,10.9014085 C40.5578182,10.6478873 39.672,10.5211268 38.7861818,10.5211268 C36.8247273,10.5211268 35.8756364,11.2816901 35.8756364,12.8028169 C35.8756364,13.4366197 36.0654545,13.943662 36.3818182,14.2605634 C36.7614545,14.5140845 37.2676364,14.7042254 37.9636364,14.7042254 Z" id="Shape" fill-rule="nonzero"></path>
                            <path d="M16.8938182,13.7535211 C16.3876364,13.1830986 16.0712727,12.4859155 16.008,11.2183099 C16.704,11.4084507 18.1592727,11.7253521 19.1716364,11.7253521 C21.1963636,11.7253521 23.4741818,11.0915493 23.4741818,8.3028169 C23.4741818,5.95774648 21.8923636,4.88028169 19.5512727,4.88028169 C18.0327273,4.88028169 16.8305455,5.38732394 16.008,6.33802817 C15.1854545,7.28873239 14.7425455,8.68309859 14.7425455,10.3943662 C14.7425455,12.2323944 15.1854545,13.6267606 16.008,14.5774648 C16.8305455,15.528169 18.096,15.971831 19.7410909,15.971831 C21.0065455,15.971831 22.0821818,15.7183099 23.0312727,15.2746479 C23.1578182,15.2112676 23.2210909,15.084507 23.2210909,14.8943662 L23.2210909,14.5774648 C23.2210909,14.3873239 23.0312727,14.2605634 22.8414545,14.3239437 C21.8290909,14.7042254 20.8167273,14.8943662 19.8043636,14.8943662 C18.4756364,14.7676056 17.5265455,14.4507042 16.8938182,13.7535211 Z M19.4247273,5.83098592 C21.0065455,5.83098592 22.272,6.40140845 22.272,8.23943662 C22.272,10.1408451 20.6269091,10.6478873 19.0450909,10.6478873 C18.0327273,10.6478873 16.6407273,10.4577465 15.9447273,10.3309859 C15.9447273,10.2676056 15.9447273,10.1408451 15.9447273,10.0774648 C16.0712727,7.28873239 17.2101818,5.83098592 19.4247273,5.83098592 Z" id="Shape" fill-rule="nonzero"></path>
                        </g>
                    </g>
                    <g>
                        <path d="M0.253090909,5.07042254 C0.569454545,5.13380282 0.885818182,5.1971831 1.13890909,5.1971831 C1.45527273,5.1971831 1.64509091,5.13380282 1.77163636,4.94366197 C1.89818182,4.81690141 1.96145455,4.56338028 1.96145455,4.18309859 L1.96145455,0.443661972 L2.91054545,0.443661972 L2.91054545,4.18309859 C2.91054545,4.75352113 2.784,5.1971831 2.46763636,5.51408451 C2.21454545,5.83098592 1.77163636,5.95774648 1.20218182,5.95774648 C0.885818182,5.95774648 0.569454545,5.8943662 0.189818182,5.76760563 L0.189818182,5.07042254 L0.253090909,5.07042254 Z" id="Path"></path>
                        <path d="M8.16218182,0.443661972 L9.11127273,0.443661972 L9.11127273,3.86619718 C9.11127273,4.56338028 8.92145455,5.07042254 8.54181818,5.45070423 C8.16218182,5.83098592 7.656,6.02112676 6.96,6.02112676 C6.264,6.02112676 5.69454545,5.83098592 5.37818182,5.45070423 C4.99854545,5.07042254 4.80872727,4.56338028 4.80872727,3.86619718 L4.80872727,0.443661972 L5.69454545,0.443661972 L5.69454545,3.92957746 C5.69454545,4.30985915 5.82109091,4.62676056 6.01090909,4.88028169 C6.20072727,5.13380282 6.51709091,5.1971831 6.89672727,5.1971831 C7.27636364,5.1971831 7.59272727,5.07042254 7.78254545,4.88028169 C7.97236364,4.69014085 8.09890909,4.37323944 8.09890909,3.92957746 L8.09890909,0.443661972 L8.16218182,0.443661972 Z" id="Path"></path>
                        <path d="M12.0218182,3.35915493 C11.5789091,3.16901408 11.2625455,2.97887324 11.0727273,2.78873239 C10.8829091,2.53521127 10.7563636,2.28169014 10.7563636,1.90140845 C10.7563636,1.3943662 10.9461818,1.01408451 11.2625455,0.76056338 C11.5789091,0.507042254 12.0850909,0.316901408 12.6545455,0.316901408 C13.1607273,0.316901408 13.6036364,0.38028169 14.1098182,0.570422535 L14.1098182,1.33098592 C13.6036364,1.20422535 13.1607273,1.07746479 12.7810909,1.07746479 C12.0850909,1.07746479 11.7687273,1.33098592 11.7687273,1.77464789 C11.7687273,1.96478873 11.832,2.0915493 11.9585455,2.21830986 C12.0850909,2.34507042 12.2749091,2.47183099 12.5912727,2.53521127 L13.224,2.78873239 C13.6669091,2.97887324 13.9832727,3.16901408 14.1730909,3.35915493 C14.3629091,3.61267606 14.4894545,3.86619718 14.4894545,4.24647887 C14.4894545,4.75352113 14.2996364,5.1971831 13.92,5.51408451 C13.5403636,5.83098592 13.0341818,5.95774648 12.4014545,5.95774648 C12.1483636,5.95774648 11.832,5.95774648 11.5789091,5.8943662 C11.3258182,5.83098592 11.0727273,5.76760563 10.8829091,5.64084507 L10.8829091,4.88028169 C11.136,4.94366197 11.3890909,5.00704225 11.6421818,5.07042254 C11.8952727,5.13380282 12.1483636,5.13380282 12.4014545,5.13380282 C12.7810909,5.13380282 13.0341818,5.07042254 13.224,4.94366197 C13.4138182,4.81690141 13.5403636,4.62676056 13.5403636,4.37323944 C13.5403636,4.18309859 13.4770909,4.05633803 13.3505455,3.92957746 C13.224,3.8028169 13.0341818,3.67605634 12.7178182,3.61267606 L12.0218182,3.35915493 Z" id="Path"></path>
                        <polygon id="Path" points="17.2734545 5.8943662 17.2734545 1.26760563 15.5650909 1.26760563 15.5650909 0.507042254 19.8676364 0.507042254 19.8676364 1.26760563 18.1592727 1.26760563 18.1592727 5.8943662"></polygon>
                        <path d="M27.3338182,5.8943662 L26.8909091,4.56338028 L24.7396364,4.56338028 L24.2967273,5.8943662 L23.3476364,5.8943662 L25.3090909,0.507042254 L26.3214545,0.507042254 L28.2829091,5.8943662 L27.3338182,5.8943662 Z M24.9294545,3.8028169 L26.6378182,3.8028169 L25.752,1.33098592 L24.9294545,3.8028169 Z" id="Shape" fill-rule="nonzero"></path>
                        <path d="M30.624,3.35915493 C30.1810909,3.16901408 29.8647273,2.97887324 29.6749091,2.78873239 C29.4850909,2.53521127 29.3585455,2.28169014 29.3585455,1.90140845 C29.3585455,1.3943662 29.5483636,1.01408451 29.8647273,0.76056338 C30.1810909,0.507042254 30.6872727,0.316901408 31.2567273,0.316901408 C31.7629091,0.316901408 32.2058182,0.38028169 32.712,0.570422535 L32.712,1.33098592 C32.2058182,1.20422535 31.7629091,1.07746479 31.3832727,1.07746479 C30.6872727,1.07746479 30.3709091,1.33098592 30.3709091,1.77464789 C30.3709091,1.96478873 30.4341818,2.0915493 30.5607273,2.21830986 C30.6872727,2.34507042 30.8770909,2.47183099 31.1934545,2.53521127 L31.8261818,2.78873239 C32.2690909,2.97887324 32.5854545,3.16901408 32.7752727,3.35915493 C32.9650909,3.61267606 33.0916364,3.86619718 33.0916364,4.24647887 C33.0916364,4.75352113 32.9018182,5.1971831 32.5221818,5.51408451 C32.1425455,5.83098592 31.6363636,5.95774648 31.0036364,5.95774648 C30.7505455,5.95774648 30.4341818,5.95774648 30.1810909,5.8943662 C29.928,5.83098592 29.6749091,5.76760563 29.4850909,5.64084507 L29.4850909,4.88028169 C29.7381818,4.94366197 29.9912727,5.00704225 30.2443636,5.07042254 C30.4974545,5.13380282 30.7505455,5.13380282 31.0036364,5.13380282 C31.3832727,5.13380282 31.6363636,5.07042254 31.8261818,4.94366197 C32.016,4.81690141 32.1425455,4.62676056 32.1425455,4.37323944 C32.1425455,4.18309859 32.0792727,4.05633803 31.9527273,3.92957746 C31.8261818,3.8028169 31.6363636,3.67605634 31.32,3.61267606 L30.624,3.35915493 Z" id="Path"></path>
                        <polygon id="Path" points="34.7367273 5.8943662 34.7367273 0.507042254 35.6858182 0.507042254 35.6858182 2.91549296 37.7738182 0.507042254 38.8494545 0.507042254 36.5716364 3.04225352 39.1025455 5.8943662 37.9636364 5.8943662 35.6858182 3.29577465 35.6858182 5.8943662"></polygon>
                    </g>
                </g>
                <path d="M24.2087273,4.43661972 C14.7178182,4.43661972 7.06181818,12.2323944 7.06181818,21.7394366 C7.06181818,31.2464789 14.7178182,39.0422535 24.2087273,39.0422535 C33.6996364,39.0422535 41.3556364,31.2464789 41.3556364,21.7394366 C41.2923636,12.2323944 33.6996364,4.43661972 24.2087273,4.43661972 Z M21.488,38.8521127 L21.488,35.4295775 C21.488,34.2253521 20.7287273,33.1478873 19.6530909,32.6408451 C15.4770909,30.8661972 12.5032727,26.6197183 12.5032727,21.7394366 C12.5032727,15.2746479 17.6916364,9.95070423 24.2087273,9.95070423 C30.7258182,9.95070423 35.9141818,15.2746479 35.9141818,21.7394366 C35.8509091,29.4084507 30.0298182,36.6338028 21.488,38.8521127 Z" id="Shape" fill="#0DBFE9" fill-rule="nonzero"></path>
            </g>
        </g>
    </g>
</svg>