<?xml version="1.0" encoding="UTF-8"?>
<svg width="185px" height="45px" viewBox="0 0 185 45" version="1.1" xmlns="http://www.w3.org/2000/svg" xmlns:xlink="http://www.w3.org/1999/xlink">
    <!-- Generator: Sketch 52.5 (67469) - http://www.bohemiancoding.com/sketch -->
    <title>discover-apple</title>
    <desc>Created with Sketch.</desc>
    <defs>
        <linearGradient x1="50%" y1="0%" x2="50%" y2="100%" id="linearGradient-1">
            <stop stop-color="#F452FF" offset="0%"></stop>
            <stop stop-color="#832BC1" offset="100%"></stop>
        </linearGradient>
    </defs>
    <g id="Page-1" stroke="none" stroke-width="1" fill="none" fill-rule="evenodd">
        <g id="Home---Best-Practices" transform="translate(-197.000000, -1723.000000)">
            <g id="discover-apple" transform="translate(197.000000, 1723.000000)">
                <path d="M174.154852,0 L10.6904212,0 C10.2792727,0 9.87305758,0 9.46291818,0.00225 C9.11971515,0.0043875 8.77920303,0.011025 8.43263636,0.016425 C7.6864697,0.0351 6.93088485,0.0813375 6.18583939,0.215325 C5.4353,0.347175 4.73779394,0.5724 4.05452727,0.9207 C3.3833697,1.265625 2.77017879,1.713825 2.23973333,2.2467375 C1.70312121,2.7795375 1.25867273,3.3969375 0.918609091,4.070475 C0.569912121,4.754925 0.34869697,5.45805 0.217851515,6.2116875 C0.0826333333,6.95655 0.0361030303,7.7101875 0.016930303,8.4639375 C0.00661515151,8.8088625 0.00549393939,9.1549125 -2.55795385e-13,9.4998375 C-2.55795385e-13,9.907425 -2.55795385e-13,10.3161375 -2.55795385e-13,10.7281125 L-2.55795385e-13,34.2729 C-2.55795385e-13,34.68825 -2.55795385e-13,35.0947125 -2.55795385e-13,35.503425 C0.00549393939,35.8527375 0.00661515151,36.1911375 0.016930303,36.5405625 C0.0361030303,37.2942 0.0826333333,38.0478375 0.217851515,38.7927 C0.34869697,39.5463375 0.569912121,40.2528375 0.918609091,40.9350375 C1.25856061,41.6052 1.70312121,42.2227125 2.23962121,42.751125 C2.77006667,43.2883125 3.38325758,43.7355 4.05452727,44.0771625 C4.73779394,44.428725 5.43518788,44.6506875 6.18583939,44.7868125 C6.93088485,44.9209125 7.6864697,44.9649 8.43263636,44.9857125 C8.77920303,44.9933625 9.11971515,44.99775 9.46291818,44.99775 C9.87305758,45 10.2792727,45 10.6904212,45 L174.154964,45 C174.557927,45 174.967394,45 175.370358,44.99775 C175.711991,44.99775 176.06237,44.9933625 176.404003,44.9857125 C177.155103,44.9649 177.908445,44.9209125 178.646427,44.7868125 C179.397527,44.6506875 180.096042,44.428725 180.785924,44.0771625 C181.455961,43.7355 182.069152,43.2883125 182.599148,42.751125 C183.133406,42.2227125 183.577967,41.6052 183.923973,40.9350375 C184.267736,40.2528375 184.491194,39.5463375 184.618115,38.7927 C184.756136,38.0478375 184.799864,37.2942 184.826212,36.5405625 C184.830585,36.1911375 184.830585,35.8527375 184.830585,35.503425 C184.83933,35.0947125 184.83933,34.68825 184.83933,34.2729 L184.83933,10.7281125 C184.83933,10.3161375 184.83933,9.907425 184.830585,9.4998375 C184.830585,9.1549125 184.830585,8.80875 184.826212,8.463825 C184.799864,7.7101875 184.756136,6.95655 184.618115,6.211575 C184.491194,5.4579375 184.267736,4.7548125 183.923973,4.0703625 C183.577967,3.3969375 183.133406,2.779425 182.599148,2.246625 C182.069152,1.713825 181.455961,1.2655125 180.785924,0.9205875 C180.096042,0.5722875 179.397527,0.3470625 178.646427,0.2152125 C177.908445,0.081225 177.155103,0.0349875 176.404003,0.0163125 C176.06237,0.0108 175.711991,0.004275 175.370358,0.002025 C174.967282,0 174.557815,0 174.154852,0 Z" id="Path" fill="#A6A6A6"></path>
                <path d="M9.48948182,44.03125 C9.14784848,44.03125 8.81451212,44.0268625 8.4755697,44.0192125 C7.8487,44.00155 7.10522424,43.96645 6.37991212,43.835725 C5.69552424,43.711525 5.08737879,43.5093625 4.5224,43.2193375 C3.93768788,42.9216625 3.41217576,42.5371375 2.95606667,42.0756625 C2.49177273,41.6186875 2.11022424,41.0935375 1.8118697,40.5046 C1.52113939,39.9367 1.32246061,39.32695 1.20305152,38.64025 C1.06615152,37.88335 1.0311697,37.1153125 1.0163697,36.530875 C1.00930606,36.2936125 1,35.5036375 1,35.5036375 L1,9.5154625 C1,9.5154625 1.00986667,8.7376375 1.0163697,8.50915 C1.0311697,7.9197625 1.06615152,7.1524 1.2019303,6.4030375 C1.3219,5.712625 1.52057879,5.1034375 1.81130909,4.533175 C2.10910303,3.943225 2.49121212,3.415375 2.94945152,2.9605375 C3.41318485,2.494675 3.94093939,2.1091375 4.52172727,1.810225 C5.09769394,1.5169375 5.7048303,1.31635 6.37542727,1.1983375 C7.13033939,1.0626625 7.89579091,1.028575 8.47826061,1.013725 L9.49004242,1 L175.385821,1 L176.4096,1.0142875 C176.984445,1.028575 177.749785,1.0626625 178.493261,1.1972125 C179.168791,1.3159 179.779852,1.5175 180.366694,1.8136 C180.941539,2.1091375 181.468173,2.4947875 181.926973,2.95615 C182.385773,3.413125 182.770012,3.9437875 183.074421,4.5359875 C183.36347,5.1110875 183.560579,5.720275 183.674494,6.391 C183.804779,7.1007625 183.845255,7.82965 183.869361,8.5141 C183.872612,8.8327 183.872612,9.174925 183.872612,9.5154625 C183.88147,9.9373375 183.88147,10.33885 183.88147,10.7437375 L183.88147,34.288525 C183.88147,34.6972375 183.88147,35.09605 183.872612,35.498125 C183.872612,35.863975 183.872612,36.1991125 183.868239,36.5440375 C183.845255,37.20655 183.804779,37.9349875 183.676624,38.629225 C183.560579,39.3191875 183.36347,39.9289375 183.07117,40.507975 C182.769003,41.0924125 182.384652,41.620825 181.932467,42.0668875 C181.469294,42.5371375 180.94367,42.9205375 180.363442,43.2172 C179.781982,43.51375 179.188524,43.7104 178.493261,43.835725 C177.775012,43.96645 177.031536,44.00155 176.397491,44.0192125 C176.069088,44.0268625 175.725212,44.03125 175.391315,44.03125 L174.175921,44.0335 L9.48948182,44.03125 Z" id="Path" fill="#000000"></path>
                <g id="XMLID_632_" transform="translate(7.848485, 7.875000)">
                    <path d="M28.2344758,25.0066125 C27.9602273,25.705575 27.3274152,26.689725 26.429997,27.38295 C25.9118848,27.7833375 25.2933121,28.1660625 24.4436576,28.418625 C23.5379424,28.68795 22.4223364,28.7789625 21.0338273,28.7789625 L8.33800606,28.7789625 C6.94960909,28.7789625 5.83400303,28.68795 4.92817576,28.418625 C4.07852121,28.1660625 3.46006061,27.7833375 2.94183636,27.38295 C2.0445303,26.6896125 1.41160606,25.705575 1.13735758,25.0066125 C0.584936364,23.5983375 0.579330303,22.0005 0.579330303,20.9941875 L0.579330303,8.2553625 C0.579330303,7.24905 0.584936364,5.6512125 1.13735758,4.2429375 C1.41160606,3.543975 2.04441818,2.559825 2.94183636,1.8666 C3.45994848,1.4662125 4.07852121,1.0834875 4.92817576,0.830925 C5.83389091,0.5616 6.94949697,0.4705875 8.33800606,0.4705875 L21.0339394,0.4705875 C22.4223364,0.4705875 23.5379424,0.5616 24.4437697,0.830925 C25.2934242,1.0834875 25.9118848,1.466325 26.4301091,1.8666 C27.3274152,2.5599375 27.9603394,3.543975 28.2345879,4.2429375 C28.7870091,5.6512125 28.7926152,7.24905 28.7926152,8.2553625 L28.7926152,20.9941875 C28.792503,22.0003875 28.786897,23.598225 28.2344758,25.0066125 Z" id="XMLID_662_" fill="url(#linearGradient-1)"></path>
                    <path d="M28.2344758,25.0066125 C27.9602273,25.705575 27.3274152,26.689725 26.429997,27.38295 C25.9118848,27.7833375 25.2933121,28.1660625 24.4436576,28.418625 C23.5379424,28.68795 22.4223364,28.7789625 21.0338273,28.7789625 L8.33800606,28.7789625 C6.94960909,28.7789625 5.83400303,28.68795 4.92817576,28.418625 C4.07852121,28.1660625 3.46006061,27.7833375 2.94183636,27.38295 C2.0445303,26.6896125 1.41160606,25.705575 1.13735758,25.0066125 C0.584936364,23.5983375 0.579330303,22.0005 0.579330303,20.9941875 L0.579330303,8.2553625 C0.579330303,7.24905 0.584936364,5.6512125 1.13735758,4.2429375 C1.41160606,3.543975 2.04441818,2.559825 2.94183636,1.8666 C3.45994848,1.4662125 4.07852121,1.0834875 4.92817576,0.830925 C5.83389091,0.5616 6.94949697,0.4705875 8.33800606,0.4705875 L21.0339394,0.4705875 C22.4223364,0.4705875 23.5379424,0.5616 24.4437697,0.830925 C25.2934242,1.0834875 25.9118848,1.466325 26.4301091,1.8666 C27.3274152,2.5599375 27.9603394,3.543975 28.2345879,4.2429375 C28.7870091,5.6512125 28.7926152,7.24905 28.7926152,8.2553625 L28.7926152,20.9941875 C28.792503,22.0003875 28.786897,23.598225 28.2344758,25.0066125 Z" id="XMLID_660_"></path>
                    <g id="XMLID_648_" transform="translate(4.484848, 3.375000)" fill="#FFFFFF" fill-rule="nonzero">
                        <path d="M12.2472242,13.3666875 C11.8238545,12.9184875 11.0802667,12.6311625 10.2024697,12.6311625 C9.32456061,12.6311625 8.58097273,12.9184875 8.15760303,13.3666875 C7.93672424,13.600575 7.81989394,13.8403125 7.78311818,14.1818625 C7.71180909,14.84325 7.75183636,15.412725 7.82908788,16.3231875 C7.90263939,17.1907875 8.04234242,18.3477375 8.22465152,19.5260625 C8.35437576,20.3646375 8.4597697,20.817225 8.55574545,21.1413375 C8.7113697,21.6666 9.29294242,22.1259375 10.2024697,22.1259375 C11.1118848,22.1259375 11.6934576,21.6664875 11.8490818,21.1413375 C11.9450576,20.817225 12.0504515,20.3646375 12.1801758,19.5260625 C12.3624848,18.3477375 12.5021879,17.1907875 12.5757394,16.3231875 C12.6529909,15.4126125 12.6930182,14.8431375 12.6217091,14.1818625 C12.5849333,13.840425 12.468103,13.600575 12.2472242,13.3666875 Z M7.89568788,9.375975 C7.89568788,10.6554375 8.92944545,11.6926875 10.2046,11.6926875 C11.4798667,11.6926875 12.5136242,10.6554375 12.5136242,9.375975 C12.5136242,8.0964 11.4798667,7.05915 10.2046,7.05915 C8.92944545,7.05915 7.89568788,8.0964 7.89568788,9.375975 Z M10.1760091,0.2331 C4.77591515,0.2485125 0.351051515,4.644225 0.284227273,10.062225 C0.229960606,14.4511875 3.02222727,18.2055375 6.92124242,19.5816375 C7.01587273,19.61505 7.11196061,19.5361875 7.09704848,19.436625 C7.04592121,19.0958625 6.99770909,18.7534125 6.95342121,18.4167 C6.93772424,18.297675 6.86215455,18.195075 6.75261212,18.1470375 C3.67084848,16.7961375 1.51890606,13.6949625 1.55343939,10.102725 C1.59873636,5.388525 5.4353,1.5453 10.1336273,1.5071625 C14.9367879,1.4682375 18.8566576,5.3773875 18.8566576,10.1878875 C18.8566576,13.744125 16.7141333,16.807275 13.6563636,18.147375 C13.5468212,18.1954125 13.4717,18.29835 13.4561152,18.4172625 C13.4118273,18.7538625 13.3636152,19.0962 13.3126,19.436625 C13.2975758,19.5361875 13.3936636,19.61505 13.4882939,19.58175 C17.3500848,18.2188125 20.1260939,14.52285 20.1260939,10.188 C20.1258697,4.6891125 15.6597455,0.21735 10.1760091,0.2331 Z M9.99672727,4.8000375 C13.0579727,4.681125 15.5860818,7.145325 15.5860818,10.190925 C15.5860818,11.739825 14.9320788,13.1382 13.8867727,14.123025 C13.7980848,14.2065 13.7504333,14.325075 13.7572727,14.4469125 C13.7781273,14.817375 13.770503,15.177375 13.7459485,15.58395 C13.7393333,15.6922875 13.8604242,15.761475 13.9497848,15.7003875 C15.7026879,14.4984375 16.8556303,12.477375 16.8556303,10.190925 C16.8556303,6.426225 13.7303636,3.3800625 9.94638485,3.5272125 C6.42981515,3.6640125 3.60850909,6.57315 3.56343636,10.104075 C3.53383636,12.4263 4.69384242,14.4835875 6.46928182,15.7006125 C6.55841818,15.7617 6.67917273,15.6924 6.67255758,15.584175 C6.64789091,15.177375 6.64037879,14.817375 6.66112121,14.4469125 C6.66796061,14.3251875 6.62042121,14.2066125 6.53195758,14.12325 C5.45402424,13.107825 4.79206061,11.6526375 4.83421818,10.0461375 C4.90844242,7.2190125 7.1801303,4.9095 9.99672727,4.8000375 Z" id="Shape"></path>
                    </g>
                </g>
                <g id="Group" transform="translate(42.606061, 20.250000)" fill="#FFFFFF">
                    <path d="M9.21972727,11.0500875 L3.91258182,11.0500875 L2.6381,14.8260375 L0.390181818,14.8260375 L5.41702424,0.854775 L7.75250909,0.854775 L12.7793515,14.8260375 L10.4930879,14.8260375 L9.21972727,11.0500875 Z M4.4622,9.307575 L8.66898788,9.307575 L6.59519394,3.17835 L6.53711515,3.17835 L4.4622,9.307575 Z" id="Shape" fill-rule="nonzero"></path>
                    <path d="M23.6356,9.7338375 C23.6356,12.899025 21.9471667,14.932575 19.3993242,14.932575 C17.9529606,14.932575 16.8042788,14.2833375 16.2054394,13.150575 L16.1572273,13.150575 L16.1572273,18.195525 L14.0735667,18.195525 L14.0735667,4.640625 L16.090403,4.640625 L16.090403,6.3347625 L16.1287485,6.3347625 C16.7079667,5.2416 17.9430939,4.5340875 19.3609788,4.5340875 C21.9373,4.5340875 23.6356,6.5775375 23.6356,9.7338375 Z M21.4938606,9.7338375 C21.4938606,7.6717125 20.4317364,6.315975 18.8112485,6.315975 C17.2192394,6.315975 16.1483697,7.7002875 16.1483697,9.7338375 C16.1483697,11.7860625 17.2192394,13.160475 18.8112485,13.160475 C20.4318485,13.160475 21.4938606,11.81475 21.4938606,9.7338375 Z" id="Shape" fill-rule="nonzero"></path>
                    <path d="M34.8082545,9.7338375 C34.8082545,12.899025 33.1198212,14.932575 30.5719788,14.932575 C29.1256152,14.932575 27.9770455,14.2833375 27.3780939,13.150575 L27.3298818,13.150575 L27.3298818,18.195525 L25.2462212,18.195525 L25.2462212,4.640625 L27.2630576,4.640625 L27.2630576,6.3347625 L27.301403,6.3347625 C27.8806212,5.2416 29.1157485,4.5340875 30.5336333,4.5340875 C33.1100667,4.5340875 34.8082545,6.5775375 34.8082545,9.7338375 Z M32.6666273,9.7338375 C32.6666273,7.6717125 31.604503,6.315975 29.9840152,6.315975 C28.3920061,6.315975 27.3211364,7.7002875 27.3211364,9.7338375 C27.3211364,11.7860625 28.3920061,13.160475 29.9840152,13.160475 C31.604503,13.160475 32.6666273,11.81475 32.6666273,9.7338375 Z" id="Shape" fill-rule="nonzero"></path>
                    <polygon id="Path" points="36.4955667 0.854775 38.5803485 0.854775 38.5803485 14.8260375 36.4955667 14.8260375"></polygon>
                    <path d="M49.4289727,11.8344375 C49.1486697,13.6834875 47.3540576,14.952375 45.0580394,14.952375 C42.1049909,14.952375 40.2720333,12.9672 40.2720333,9.7822125 C40.2720333,6.5874375 42.1148576,4.5154125 44.9703606,4.5154125 C47.7788848,4.5154125 49.5450182,6.4512 49.5450182,9.5394375 L49.5450182,10.255725 L42.3754273,10.255725 L42.3754273,10.3820625 C42.3754273,12.1244625 43.4660303,13.267125 45.1061394,13.267125 C46.2634545,13.267125 47.1711879,12.71565 47.4503697,11.83455 L49.4289727,11.83455 L49.4289727,11.8344375 Z M42.3851818,8.794575 L47.4602364,8.794575 C47.4120242,7.2356625 46.4178455,6.2094375 44.9703606,6.2094375 C43.5327424,6.2094375 42.4914727,7.25535 42.3851818,8.794575 Z" id="Shape" fill-rule="nonzero"></path>
                    <path d="M60.6432242,0.854775 C63.3444485,0.854775 65.2266273,2.7235125 65.2266273,5.4448875 C65.2266273,8.1750375 63.306103,10.05255 60.5753909,10.05255 L57.583997,10.05255 L57.583997,14.82615 L55.4226364,14.82615 L55.4226364,0.854775 L60.6432242,0.854775 Z M57.583997,8.2332 L60.0640061,8.2332 C61.9450636,8.2332 63.0159333,7.2158625 63.0159333,5.4547875 C63.0159333,3.6925875 61.9450636,2.6845875 60.0738727,2.6845875 L57.583997,2.6845875 L57.583997,8.2332 Z" id="Shape" fill-rule="nonzero"></path>
                    <path d="M65.9875939,9.7338375 C65.9875939,6.5291625 67.8686515,4.5153 70.8019667,4.5153 C73.7451485,4.5153 75.6174606,6.52905 75.6174606,9.7338375 C75.6174606,12.9472875 73.7550152,14.952375 70.8019667,14.952375 C67.8500394,14.952375 65.9875939,12.9474 65.9875939,9.7338375 Z M73.4944455,9.7338375 C73.4944455,7.535475 72.4904,6.2380125 70.8019667,6.2380125 C69.1135333,6.2380125 68.1094879,7.545375 68.1094879,9.7338375 C68.1094879,11.940975 69.1135333,13.2285375 70.8019667,13.2285375 C72.4904,13.2285375 73.4944455,11.9410875 73.4944455,9.7338375 Z" id="Shape" fill-rule="nonzero"></path>
                    <path d="M77.0804182,9.7338375 C77.0804182,6.587325 78.8070848,4.533975 81.3254394,4.533975 C82.7827909,4.533975 83.9313606,5.2117875 84.5094576,6.33465 L84.5489242,6.33465 L84.5489242,0.8546625 L86.6424515,0.8546625 L86.6424515,14.825925 L84.6157485,14.825925 L84.6157485,13.093425 L84.577403,13.093425 C83.9795727,14.25465 82.8211364,14.932575 81.3451727,14.932575 C78.8070848,14.932575 77.0804182,12.88035 77.0804182,9.7338375 Z M79.2121788,9.7338375 C79.2121788,11.8245375 80.274303,13.160475 81.8947909,13.160475 C83.4966667,13.160475 84.5675364,11.8047375 84.5675364,9.7338375 C84.5675364,7.6804875 83.4966667,6.315975 81.8947909,6.315975 C80.274303,6.3160875 79.2121788,7.6618125 79.2121788,9.7338375 Z" id="Shape" fill-rule="nonzero"></path>
                    <path d="M95.5092212,8.145225 C95.3263515,7.0707375 94.4865636,6.2677125 93.1167788,6.2677125 C91.514903,6.2677125 90.4527788,7.61355 90.4527788,9.73395 C90.4527788,11.9026125 91.5247697,13.2089625 93.1353909,13.2089625 C94.4284848,13.2089625 95.2781394,12.5607375 95.5092212,11.3797125 L97.5161909,11.3797125 C97.2851091,13.5187875 95.5770545,14.9524875 93.1167788,14.9524875 C90.2218091,14.9524875 88.3307727,12.9673125 88.3307727,9.73395 C88.3307727,6.5676375 90.221697,4.5154125 93.0970455,4.5154125 C95.7018455,4.5154125 97.3234545,6.161175 97.4975788,8.1453375 L95.5092212,8.1453375 L95.5092212,8.145225 Z" id="Path"></path>
                    <path d="M98.7929152,11.9311875 C98.7929152,10.1503125 100.152833,9.0747 102.565009,8.9296875 L105.343933,8.774775 L105.343933,8.0002125 C105.343933,6.8675625 104.601579,6.2281125 103.337973,6.2281125 C102.179536,6.2281125 101.369236,6.7807125 101.205091,7.6618125 L99.2560879,7.6618125 C99.3141667,5.82165 101.0211,4.5153 103.39493,4.5153 C105.816973,4.5153 107.418848,5.8413375 107.418848,7.8453 L107.418848,14.8260375 L105.421745,14.8260375 L105.421745,13.150575 L105.373533,13.150575 C104.784448,14.283225 103.501221,15.0006375 102.169782,15.0006375 C100.182433,15.00075 98.7929152,13.76145 98.7929152,11.9311875 Z M105.343933,11.0116125 L105.343933,10.22715 L102.845312,10.3820625 C101.600318,10.460025 100.896309,11.0017125 100.896309,11.8729125 C100.896309,12.7639125 101.629918,13.3450875 102.749,13.3450875 C104.206239,13.3450875 105.343933,12.33765 105.343933,11.0116125 Z" id="Shape" fill-rule="nonzero"></path>
                    <path d="M113.235136,4.5253125 C115.484176,4.5253125 117.094797,5.7733875 117.143009,7.5740625 L115.184139,7.5740625 C115.097694,6.6742875 114.335606,6.1228125 113.17717,6.1228125 C112.048333,6.1228125 111.296112,6.6447 111.296112,7.43895 C111.296112,8.0487 111.79763,8.4551625 112.849776,8.7166125 L114.55783,9.1143 C116.603145,9.6076125 117.3751,10.362375 117.3751,11.8542375 C117.3751,13.6933875 115.638567,14.952375 113.158558,14.952375 C110.764994,14.952375 109.154373,13.72185 108.999982,11.8630125 L111.063909,11.8630125 C111.209555,12.84075 111.990255,13.3637625 113.25487,13.3637625 C114.499864,13.3637625 115.281573,12.85065 115.281573,12.037725 C115.281573,11.408175 114.895091,11.069775 113.834088,10.798425 L112.019742,10.3534875 C110.185776,9.907425 109.25943,8.9681625 109.25943,7.555275 C109.25943,5.7546 110.871173,4.5253125 113.235136,4.5253125 Z" id="Path"></path>
                    <path d="M121.902555,2.2296375 L121.902555,4.640625 L123.832945,4.640625 L123.832945,6.2962875 L121.902555,6.2962875 L121.902555,11.9113875 C121.902555,12.7837125 122.289036,13.190175 123.137682,13.190175 C123.350152,13.190175 123.688421,13.160475 123.823079,13.1418 L123.823079,14.7875625 C123.591997,14.8458375 123.128936,14.8842 122.665764,14.8842 C120.610582,14.8842 119.809027,14.1096375 119.809027,12.1343625 L119.809027,6.296175 L118.333064,6.296175 L118.333064,4.640625 L119.809027,4.640625 L119.809027,2.2296375 L121.902555,2.2296375 Z" id="Path"></path>
                    <path d="M129.435755,4.5253125 C131.684794,4.5253125 133.295415,5.7733875 133.343627,7.5740625 L131.384758,7.5740625 C131.298312,6.6742875 130.536224,6.1228125 129.377788,6.1228125 C128.248952,6.1228125 127.49673,6.6447 127.49673,7.43895 C127.49673,8.0487 127.998248,8.4551625 129.050394,8.7166125 L130.758448,9.1143 C132.803764,9.6076125 133.575718,10.362375 133.575718,11.8542375 C133.575718,13.6933875 131.839185,14.952375 129.359176,14.952375 C126.965612,14.952375 125.354991,13.72185 125.2006,11.8630125 L127.264527,11.8630125 C127.410173,12.84075 128.190873,13.3637625 129.455488,13.3637625 C130.700482,13.3637625 131.482191,12.85065 131.482191,12.037725 C131.482191,11.408175 131.095709,11.069775 130.034706,10.798425 L128.220361,10.3534875 C126.386394,9.907425 125.460048,8.9681625 125.460048,7.555275 C125.460048,5.7546 127.071791,4.5253125 129.435755,4.5253125 Z" id="Path"></path>
                </g>
                <g id="Group" transform="translate(43.727273, 9.000000)" fill="#FFFFFF">
                    <polygon id="Path" points="4.43753333 7.4937375 0.264718182 7.4937375 0.264718182 0.7810875 1.30329697 0.7810875 1.30329697 6.535125 4.43753333 6.535125"></polygon>
                    <path d="M5.64474242,0.9300375 C5.64474242,0.580725 5.9184303,0.3159 6.28910303,0.3159 C6.66033636,0.3159 6.93346364,0.580725 6.93346364,0.9300375 C6.93346364,1.27395 6.66022424,1.539225 6.28910303,1.539225 C5.9184303,1.539225 5.64474242,1.2738375 5.64474242,0.9300375 Z M5.79307879,2.427975 L6.78512727,2.427975 L6.78512727,7.4937375 L5.79307879,7.4937375 L5.79307879,2.427975 Z" id="Shape" fill-rule="nonzero"></path>
                    <path d="M10.2374515,2.3302125 C11.3734636,2.3302125 12.1152576,2.8603125 12.2121303,3.75345 L11.2573061,3.75345 C11.1642455,3.381525 10.8028788,3.1442625 10.2373394,3.1442625 C9.68054545,3.1442625 9.2589697,3.4090875 9.2589697,3.804525 C9.2589697,4.10715 9.51404545,4.2978375 10.0609727,4.4236125 L10.9002,4.618575 C11.8599576,4.8421125 12.3093394,5.2563375 12.3093394,6.0006375 C12.3093394,6.9543 11.4240303,7.5915 10.2186152,7.5915 C9.01746061,7.5915 8.2340697,7.0471125 8.14594242,6.1495875 L9.14292424,6.1495875 C9.26827576,6.5401875 9.63894848,6.7818375 10.2417121,6.7818375 C10.8630879,6.7818375 11.3038364,6.5028375 11.3038364,6.09795 C11.3038364,5.795775 11.0673727,5.60025 10.5614818,5.479425 L9.68065758,5.2745625 C8.7209,5.0466375 8.27589091,4.6143 8.27589091,3.8606625 C8.27589091,2.9624625 9.09650606,2.3302125 10.2374515,2.3302125 Z" id="Path"></path>
                    <path d="M14.963697,1.1667375 L14.963697,2.4510375 L16.0575515,2.4510375 L16.0575515,3.2931 L14.963697,3.2931 L14.963697,5.897925 C14.963697,6.4285875 15.1815485,6.6609 15.6775727,6.6609 C15.8302818,6.6609 15.9184091,6.6515625 16.0575515,6.6378375 L16.0575515,7.4705625 C15.8955364,7.4980125 15.7098636,7.5216375 15.514997,7.5216375 C14.406903,7.5216375 13.9667152,7.130475 13.9667152,6.1538625 L13.9667152,3.2929875 L13.1647121,3.2929875 L13.1647121,2.450925 L13.9667152,2.450925 L13.9667152,1.1667375 L14.963697,1.1667375 Z" id="Path"></path>
                    <path d="M21.5869212,6.1259625 C21.3597636,7.0333875 20.5527152,7.5915 19.3986515,7.5915 C17.9517273,7.5915 17.0664182,6.5961 17.0664182,4.976775 C17.0664182,3.3579 17.9703394,2.3302125 19.3937182,2.3302125 C20.7984848,2.3302125 21.6471303,3.2932125 21.6471303,4.8839625 L21.6471303,5.232825 L18.0814515,5.232825 L18.0814515,5.28885 C18.114303,6.17715 18.6289394,6.7401 19.4260091,6.7401 C20.0287727,6.7401 20.441603,6.5215125 20.6271636,6.1259625 L21.5869212,6.1259625 Z M18.0815636,4.4933625 L20.6316485,4.4933625 C20.6086636,3.6979875 20.1263182,3.18105 19.3894576,3.18105 C18.6520364,3.18105 18.1374,3.702375 18.0815636,4.4933625 Z" id="Shape" fill-rule="nonzero"></path>
                    <path d="M22.9840636,2.427975 L23.9438212,2.427975 L23.9438212,3.2326875 L24.0182697,3.2326875 C24.2635909,2.669625 24.7644364,2.3302125 25.5249545,2.3302125 C26.6516606,2.3302125 27.2730364,3.00915 27.2730364,4.2143625 L27.2730364,7.4937375 L26.2760545,7.4937375 L26.2760545,4.46535 C26.2760545,3.6513 25.9234333,3.2464125 25.1865727,3.2464125 C24.4491515,3.2464125 23.9810455,3.739725 23.9810455,4.53015 L23.9810455,7.4937375 L22.9840636,7.4937375 L22.9840636,2.427975 Z" id="Path"></path>
                    <path d="M31.3023364,4.9586625 C31.3023364,3.3255 32.2110788,2.3302125 33.6854727,2.3302125 C35.1548212,2.3302125 36.0636758,3.3256125 36.0636758,4.9586625 C36.0636758,6.6006 35.1597545,7.5915 33.6854727,7.5915 C32.2061455,7.5915 31.3023364,6.6006 31.3023364,4.9586625 Z M35.0393364,4.9586625 C35.0393364,3.86055 34.5476848,3.2184 33.6854727,3.2184 C32.8183273,3.2184 32.3316091,3.86055 32.3316091,4.9586625 C32.3316091,6.06555 32.8183273,6.70275 33.6854727,6.70275 C34.5476848,6.70275 35.0393364,6.0611625 35.0393364,4.9586625 Z" id="Shape" fill-rule="nonzero"></path>
                    <path d="M37.400497,2.427975 L38.3602545,2.427975 L38.3602545,3.2326875 L38.434703,3.2326875 C38.6804727,2.669625 39.1808697,2.3302125 39.9413879,2.3302125 C41.0680939,2.3302125 41.6894697,3.00915 41.6894697,4.2143625 L41.6894697,7.4937375 L40.6924879,7.4937375 L40.6924879,4.46535 C40.6924879,3.6513 40.3398667,3.2464125 39.6030061,3.2464125 C38.8655848,3.2464125 38.3974788,3.739725 38.3974788,4.53015 L38.3974788,7.4937375 L37.400497,7.4937375 L37.400497,2.427975 Z" id="Path"></path>
                </g>
            </g>
        </g>
    </g>
</svg>