<?xml version="1.0" encoding="UTF-8"?>
<svg width="182px" height="45px" viewBox="0 0 182 45" version="1.1" xmlns="http://www.w3.org/2000/svg" xmlns:xlink="http://www.w3.org/1999/xlink">
    <!-- Generator: Sketch 52.5 (67469) - http://www.bohemiancoding.com/sketch -->
    <title>discover-google</title>
    <desc>Created with Sketch.</desc>
    <g id="Page-1" stroke="none" stroke-width="1" fill="none" fill-rule="evenodd">
        <g id="Home---Best-Practices" transform="translate(-724.000000, -1723.000000)">
            <g id="discover-google" transform="translate(724.000000, 1723.000000)">
                <rect id="Rectangle" fill="#FFFFFF" fill-rule="nonzero" x="0" y="0" width="182" height="45" rx="9"></rect>
                <g id="Group-7" transform="translate(10.000000, 7.000000)">
                    <g id="Podcast_icon_final" transform="translate(0.535642, 0.941176)">
                        <g id="_logo_Podcasts_192px">
                            <polygon id="Shape" fill="#FAB908" points="12.7429254 9.26470588 12.7429254 13.6770221 12.7429254 15.440625 12.7429254 19.8529412 16.3837612 19.8529412 16.3837612 15.440625 16.3837612 13.6770221 16.3837612 9.26470588"></polygon>
                            <ellipse id="Oval" fill="#0066D9" cx="1.82041791" cy="13.5661765" rx="1.82041791" ry="1.81985294"></ellipse>
                            <ellipse id="Oval" fill="#0066D9" cx="1.82041791" cy="15.5514706" rx="1.82041791" ry="1.81985294"></ellipse>
                            <rect id="Rectangle-path" fill="#0066D9" x="0" y="13.5661765" width="3.64083582" height="1.98529412"></rect>
                            <ellipse id="Oval" fill="#4285F4" cx="27.3062687" cy="15.5514706" rx="1.82041791" ry="1.81985294"></ellipse>
                            <ellipse id="Oval" fill="#4285F4" cx="27.3062687" cy="13.5661765" rx="1.82041791" ry="1.81985294"></ellipse>
                            <rect id="Rectangle-path" fill="#4285F4" transform="translate(27.306269, 14.558824) rotate(180.000000) translate(-27.306269, -14.558824) " x="25.4858507" y="13.5661765" width="3.64083582" height="1.98529412"></rect>
                            <ellipse id="Oval" fill="#EA4335" cx="8.10913433" cy="19.5220588" rx="1.82041791" ry="1.81985294"></ellipse>
                            <ellipse id="Oval" fill="#EA4335" cx="8.10913433" cy="21.5073529" rx="1.82041791" ry="1.81985294"></ellipse>
                            <rect id="Rectangle-path" fill="#EA4335" x="6.28871642" y="19.5220588" width="3.64083582" height="1.98529412"></rect>
                            <ellipse id="Oval" fill="#EA4335" cx="8.10913433" cy="7.61029412" rx="1.82041791" ry="1.81985294"></ellipse>
                            <ellipse id="Oval" fill="#EA4335" cx="8.10913433" cy="14.0625" rx="1.82041791" ry="1.81985294"></ellipse>
                            <rect id="Rectangle-path" fill="#EA4335" x="6.28871642" y="7.61029412" width="3.64083582" height="6.49356618"></rect>
                            <ellipse id="Oval" fill="#34A853" cx="21.0175522" cy="9.59558824" rx="1.82041791" ry="1.81985294"></ellipse>
                            <ellipse id="Oval" fill="#34A853" cx="21.0175522" cy="7.61029412" rx="1.82041791" ry="1.81985294"></ellipse>
                            <rect id="Rectangle-path" fill="#34A853" transform="translate(21.017552, 8.602941) rotate(180.000000) translate(-21.017552, -8.602941) " x="19.1971343" y="7.61029412" width="3.64083582" height="1.98529412"></rect>
                            <ellipse id="Oval" fill="#FAB908" cx="14.5633433" cy="3.80514706" rx="1.82041791" ry="1.81985294"></ellipse>
                            <ellipse id="Oval" fill="#FAB908" cx="14.5633433" cy="1.81985294" rx="1.82041791" ry="1.81985294"></ellipse>
                            <rect id="Rectangle-path" fill="#FAB908" transform="translate(14.563343, 2.812500) rotate(180.000000) translate(-14.563343, -2.812500) " x="12.7429254" y="1.81985294" width="3.64083582" height="1.98529412"></rect>
                            <ellipse id="Oval" fill="#FAB908" cx="14.5633433" cy="27.2977941" rx="1.82041791" ry="1.81985294"></ellipse>
                            <ellipse id="Oval" fill="#FAB908" cx="14.5633433" cy="25.3125" rx="1.82041791" ry="1.81985294"></ellipse>
                            <rect id="Rectangle-path" fill="#FAB908" transform="translate(14.563343, 26.305147) rotate(180.000000) translate(-14.563343, -26.305147) " x="12.7429254" y="25.3125" width="3.64083582" height="1.98529412"></rect>
                            <ellipse id="Oval" fill="#34A853" cx="21.0175522" cy="21.5073529" rx="1.82041791" ry="1.81985294"></ellipse>
                            <ellipse id="Oval" fill="#34A853" cx="21.0175522" cy="15.0551471" rx="1.82041791" ry="1.81985294"></ellipse>
                            <rect id="Rectangle-path" fill="#34A853" transform="translate(21.017552, 18.281250) rotate(180.000000) translate(-21.017552, -18.281250) " x="19.1971343" y="15.0551471" width="3.64083582" height="6.45220588"></rect>
                            <ellipse id="Oval" fill="#FAB908" cx="14.5633433" cy="9.26470588" rx="1.82041791" ry="1.81985294"></ellipse>
                            <ellipse id="Oval" fill="#FAB908" cx="14.5633433" cy="19.8529412" rx="1.82041791" ry="1.81985294"></ellipse>
                        </g>
                    </g>
                    <g id="Group" transform="translate(38.929910, 14.176471)">
                        <polygon id="Rectangle-path" points="0 0 120.478567 0 120.478567 18.5294118 0 18.5294118"></polygon>
                        <path d="M59.4659554,13.8970588 L57.9501908,13.8970588 L57.9501908,2.10411765 L61.9702619,2.10411765 C62.9697929,2.10411765 63.8347586,2.43627119 64.5651849,3.10058824 C65.2956114,3.76490528 65.6608191,4.60215181 65.6608191,5.61235294 C65.6608191,6.62255407 65.2956114,7.4598006 64.5651849,8.12411764 C63.8347586,8.7884347 62.9697929,9.12058823 61.9702619,9.12058823 L59.4659554,9.12058823 L59.4659554,13.8970588 Z M59.4659554,7.67117647 L62.0032133,7.67117647 C62.640277,7.67117647 63.1510186,7.45706096 63.5354537,7.02882353 C63.9198886,6.60058609 64.1121031,6.12843395 64.1121031,5.61235294 C64.1121031,5.09627193 63.9198886,4.62411979 63.5354537,4.19588235 C63.1510186,3.76764492 62.640277,3.55352941 62.0032133,3.55352941 L59.4659554,3.55352941 L59.4659554,7.67117647 Z M66.9176062,6.79823529 C67.69746,5.97470176 68.6914841,5.56294117 69.8997081,5.56294117 C71.1079324,5.56294117 72.1019564,5.9719567 72.8818102,6.79 C73.6616639,7.60804331 74.0515849,8.63195464 74.0515849,9.8617647 C74.0515849,11.0915748 73.6616639,12.1154861 72.8818102,12.9335294 C72.1019564,13.7515728 71.1079324,14.1605882 69.8997081,14.1605882 C68.6914841,14.1605882 67.69746,13.7515728 66.9176062,12.9335294 C66.1377524,12.1154861 65.7478314,11.0915748 65.7478314,9.8617647 C65.7478314,8.63195464 66.1377524,7.61078838 66.9176062,6.79823529 Z M68.0379539,11.9864706 C68.565179,12.513532 69.1857576,12.7770588 69.8997081,12.7770588 C70.6136588,12.7770588 71.2314915,12.510787 71.7532246,11.9782353 C72.2749578,11.4456836 72.5358204,10.7402005 72.5358204,9.8617647 C72.5358204,8.98332894 72.2749578,8.2778458 71.7532246,7.74529412 C71.2314915,7.21274244 70.6136588,6.94647058 69.8997081,6.94647058 C69.1857576,6.94647058 68.567925,7.21274244 68.0461917,7.74529412 C67.5244586,8.2778458 67.2635959,8.98332894 67.2635959,9.8617647 C67.2635959,10.7402005 67.5217127,11.4484287 68.0379539,11.9864706 Z M78.619988,14.1605882 C77.5765217,14.1605882 76.6758591,13.7488276 75.917973,12.9252941 C75.1600869,12.1017606 74.7811496,11.0805943 74.7811496,9.8617647 C74.7811496,8.64293509 75.1600869,7.62176883 75.917973,6.79823529 C76.6758591,5.97470176 77.5765217,5.56294118 78.619988,5.56294118 C79.2350839,5.56294118 79.7870145,5.69470456 80.2757961,5.9582353 C80.7645776,6.22176602 81.1297853,6.55117449 81.3714303,6.94647058 L81.437333,6.94647058 L81.3714303,5.82647059 L81.3714303,2.10411765 L82.8871947,2.10411765 L82.8871947,13.8970588 L81.437333,13.8970588 L81.437333,12.7770588 L81.3714303,12.7770588 C81.1297853,13.1723549 80.7645776,13.5017633 80.2757961,13.7652941 C79.7870145,14.0288249 79.2350839,14.1605882 78.619988,14.1605882 Z M78.8671236,12.7770588 C79.5810743,12.7770588 80.1879231,12.513532 80.6876886,11.9864706 C81.1874541,11.4594091 81.437333,10.7511809 81.437333,9.8617647 C81.437333,8.97234849 81.1874541,8.26412028 80.6876886,7.73705883 C80.1879231,7.20999736 79.5810743,6.94647058 78.8671236,6.94647058 C78.1641568,6.94647058 77.5600537,7.21274244 77.0547964,7.74529412 C76.5495391,8.2778458 76.2969142,8.98332894 76.2969142,9.8617647 C76.2969142,10.7402005 76.5495391,11.4456836 77.0547964,11.9782353 C77.5600537,12.510787 78.1641568,12.7770588 78.8671236,12.7770588 Z M88.1475773,14.1605882 C86.9393532,14.1605882 85.9453292,13.7515728 85.1654754,12.9335294 C84.3856216,12.1154861 83.9957005,11.0915748 83.9957005,9.8617647 C83.9957005,8.63195464 84.3856216,7.60804331 85.1654754,6.79 C85.9453292,5.9719567 86.9393532,5.56294117 88.1475773,5.56294117 C89.0482535,5.56294117 89.7951445,5.78254683 90.3882728,6.22176471 C90.9814009,6.66098259 91.4152567,7.21548684 91.6898532,7.88529412 L90.3058942,8.4617647 C89.8885077,7.45156358 89.1361248,6.94647058 88.0487232,6.94647058 C87.378708,6.94647058 86.7883345,7.22097765 86.2775852,7.77 C85.7668359,8.31902236 85.5114651,9.01627028 85.5114651,9.8617647 C85.5114651,10.7072591 85.7668359,11.4045071 86.2775852,11.9535294 C86.7883345,12.5025518 87.378708,12.7770588 88.0487232,12.7770588 C89.1800602,12.7770588 89.9599023,12.2719658 90.3882728,11.2617647 L91.7392802,11.8382353 C91.4646839,12.4970621 91.0225903,13.0488213 90.4129862,13.4935294 C89.8033823,13.9382375 89.0482535,14.1605882 88.1475773,14.1605882 Z M95.335617,14.1605882 C94.4788763,14.1605882 93.7621903,13.9135319 93.1855379,13.4194117 C92.6088855,12.9252916 92.3205636,12.2719648 92.3205636,11.4594118 C92.3205636,10.580976 92.661058,9.89196328 93.342057,9.39235294 C94.0230562,8.89274261 94.8633085,8.64294117 95.8628394,8.64294117 C96.7525318,8.64294117 97.4829472,8.80764541 98.0541077,9.13705883 L98.0541077,8.90647058 C98.0541077,8.31352644 97.8509094,7.83862924 97.4445068,7.48176471 C97.0381041,7.12490017 96.5383462,6.94647058 95.9452179,6.94647058 C95.5058636,6.94647058 95.1077049,7.05078327 94.7507295,7.25941177 C94.3937542,7.46804026 94.1493671,7.7535276 94.0175608,8.11588235 L92.6336019,7.52294118 C92.8203275,7.03980151 93.1882811,6.59235499 93.7374739,6.18058824 C94.2866667,5.76882147 95.0115904,5.56294117 95.9122666,5.56294117 C96.944749,5.56294117 97.8014768,5.86489894 98.482476,6.46882354 C99.163475,7.07274811 99.5039694,7.92372 99.5039694,9.0217647 L99.5039694,13.8970588 L98.0541077,13.8970588 L98.0541077,12.7770588 L97.988205,12.7770588 C97.3840928,13.6994164 96.4999057,14.1605882 95.335617,14.1605882 Z M95.5827525,12.7770588 C96.2088322,12.7770588 96.7772383,12.5437278 97.2879876,12.0770588 C97.7987369,11.6103898 98.0541077,11.0586306 98.0541077,10.4217647 C97.6257374,10.0703904 96.9831914,9.89470588 96.1264506,9.89470588 C95.3905323,9.89470588 94.8358558,10.05392 94.4624047,10.3723529 C94.0889537,10.6907859 93.9022309,11.0641155 93.9022309,11.4923529 C93.9022309,11.887649 94.0724781,12.2005871 94.4129777,12.4311765 C94.7534772,12.6617659 95.1433983,12.7770588 95.5827525,12.7770588 Z M103.940567,14.1605882 C103.039891,14.1605882 102.295746,13.9409825 101.708109,13.5017647 C101.120473,13.0625468 100.689363,12.5135327 100.414767,11.8547059 L101.765774,11.2947059 C102.194145,12.304907 102.92456,12.81 103.957043,12.81 C104.429348,12.81 104.816524,12.7056873 105.11858,12.4970588 C105.420636,12.2884303 105.571661,12.0139233 105.571661,11.6735294 C105.571661,11.146468 105.203708,10.7896088 104.467789,10.6029412 L102.836695,10.2076471 C102.320454,10.0758817 101.83168,9.82608027 101.370358,9.45823529 C100.909036,9.09039032 100.678378,8.59353254 100.678378,7.96764706 C100.678378,7.25391799 100.994159,6.6747081 101.625731,6.23 C102.257303,5.78529189 103.006939,5.56294117 103.874664,5.56294117 C104.588615,5.56294117 105.225669,5.72490034 105.785846,6.04882353 C106.346022,6.37274672 106.746927,6.83666365 106.988572,7.44058824 L105.670516,7.98411764 C105.373951,7.27038859 104.758865,6.91352942 103.825237,6.91352942 C103.374899,6.91352942 102.995962,7.00686181 102.688414,7.19352941 C102.380866,7.38019701 102.227094,7.63274351 102.227094,7.95117648 C102.227094,8.41235524 102.584064,8.72529329 103.298015,8.89 L104.896158,9.26882353 C105.654044,9.44451069 106.214212,9.74646844 106.576679,10.1747059 C106.939146,10.6029433 107.120377,11.0860757 107.120377,11.6241177 C107.120377,12.3488272 106.823818,12.9527427 106.230689,13.4358824 C105.637561,13.919022 104.874195,14.1605882 103.940567,14.1605882 Z M111.655829,14.0288236 C110.810072,14.0288236 110.16478,13.8037278 109.719934,13.3535294 C109.275088,12.9033311 109.052668,12.2664747 109.052668,11.4429412 L109.052668,7.21000001 L107.635758,7.21000001 L107.635758,5.82647059 L109.052668,5.82647059 L109.052668,3.35588236 L110.568433,3.35588236 L110.568433,5.82647059 L112.545517,5.82647059 L112.545517,7.21000001 L110.568433,7.21000001 L110.568433,11.3276471 C110.568433,12.2060828 110.930895,12.6452941 111.655829,12.6452941 C111.930425,12.6452941 112.161083,12.601373 112.347809,12.5135294 L112.875031,13.8147059 C112.545515,13.9574517 112.139119,14.0288236 111.655829,14.0288236 Z M116.965639,14.1605882 C116.064962,14.1605882 115.320817,13.9409825 114.733181,13.5017647 C114.145545,13.0625468 113.714435,12.5135327 113.439839,11.8547059 L114.790846,11.2947059 C115.219216,12.304907 115.949632,12.81 116.982114,12.81 C117.45442,12.81 117.841595,12.7056873 118.143651,12.4970588 C118.445707,12.2884303 118.596733,12.0139233 118.596733,11.6735294 C118.596733,11.146468 118.22878,10.7896088 117.492861,10.6029412 L115.861767,10.2076471 C115.345526,10.0758817 114.856751,9.82608027 114.395429,9.45823529 C113.934107,9.09039032 113.70345,8.59353254 113.70345,7.96764706 C113.70345,7.25391799 114.019231,6.6747081 114.650803,6.23 C115.282374,5.78529189 116.032011,5.56294117 116.899736,5.56294117 C117.613687,5.56294117 118.250741,5.72490034 118.810917,6.04882353 C119.371094,6.37274672 119.771999,6.83666365 120.013643,7.44058824 L118.695587,7.98411764 C118.399023,7.27038859 117.783937,6.91352942 116.850309,6.91352942 C116.399971,6.91352942 116.021033,7.00686181 115.713485,7.19352941 C115.405937,7.38019701 115.252166,7.63274351 115.252166,7.95117648 C115.252166,8.41235524 115.609136,8.72529329 116.323086,8.89 L117.921229,9.26882353 C118.679115,9.44451069 119.239284,9.74646844 119.601751,10.1747059 C119.964218,10.6029433 120.145449,11.0860757 120.145449,11.6241177 C120.145449,12.3488272 119.848889,12.9527427 119.255761,13.4358824 C118.662633,13.919022 117.899266,14.1605882 116.965639,14.1605882 Z" id="Podcasts" fill="#3C4043" fill-rule="nonzero"></path>
                        <path d="M0.386149254,7.39889706 C0.386149254,3.66727941 3.51395821,0.643382353 7.24673433,0.643382353 C9.30619702,0.643382353 10.7735642,1.45404412 11.8805254,2.50919117 L10.5676179,3.80882353 C9.78244776,3.0625 8.71410149,2.48345588 7.24673433,2.48345588 C4.53081791,2.48345588 2.40699702,4.67095589 2.40699702,7.38602942 C2.40699702,10.1011029 4.53081791,12.2886029 7.24673433,12.2886029 C9.01014926,12.2886029 10.0141373,11.5808824 10.6577194,10.9375 C11.1854567,10.4099265 11.532991,9.6507353 11.6617075,8.62132353 L7.24673433,8.62132353 L7.24673433,6.78125 L13.4637373,6.78125 C13.5280956,7.11580883 13.5667104,7.50183824 13.5667104,7.93933823 C13.5667104,9.32904412 13.1934328,11.0404412 11.9706269,12.25 C10.7735642,13.4852941 9.25471045,14.1415441 7.24673433,14.1415441 C3.51395821,14.1415441 0.386149254,11.1176471 0.386149254,7.39889706 Z M18.5222926,5.53308824 C20.9292895,5.53308824 22.8857791,7.36029412 22.8857791,9.88235295 C22.8857791,12.3915441 20.9292895,14.2316177 18.5222926,14.2316177 C16.1152955,14.2316177 14.1588059,12.3915441 14.1588059,9.88235295 C14.1588059,7.36029412 16.1152955,5.53308824 18.5222926,5.53308824 Z M18.5222926,12.5073529 C19.8351999,12.5073529 20.9807761,11.4264706 20.9807761,9.86948529 C20.9807761,8.29963235 19.8351999,7.23161765 18.5222926,7.23161765 C17.1965134,7.23161765 16.0638089,8.29963235 16.0638089,9.86948529 C16.0638089,11.4264706 17.2093851,12.5073529 18.5222926,12.5073529 Z M28.0473074,5.53308824 C30.4543045,5.53308824 32.4107941,7.36029412 32.4107941,9.88235295 C32.4107941,12.3915441 30.4543045,14.2316177 28.0473074,14.2316177 C25.6403105,14.2316177 23.6838209,12.3915441 23.6838209,9.88235295 C23.6838209,7.36029412 25.6403105,5.53308824 28.0473074,5.53308824 Z M28.0473074,12.5073529 C29.3602149,12.5073529 30.5057911,11.4264706 30.5057911,9.86948529 C30.5057911,8.29963235 29.3730866,7.23161765 28.0473074,7.23161765 C26.7215283,7.23161765 25.5888239,8.29963235 25.5888239,9.86948529 C25.5888239,11.4264706 26.7344001,12.5073529 28.0473074,12.5073529 Z M39.7347582,5.67463235 L41.5625314,5.67463235 L41.5625314,13.4852941 C41.5625314,16.7022058 39.6704,18.0147059 37.4307343,18.0147059 C35.3197851,18.0147059 34.0454926,16.5992647 33.5692418,15.4411765 L35.2296836,14.7463236 C35.5257313,15.4540441 36.2465433,16.2904411 37.4178627,16.2904411 C38.846615,16.2904411 39.7347582,15.4025735 39.7347582,13.742647 L39.7347582,13.1121323 L39.6704,13.1121323 C39.2456359,13.6397059 38.4218507,14.1029412 37.3792477,14.1029412 C35.2039403,14.1029412 33.2088358,12.1985294 33.2088358,9.76654412 C33.2088358,7.30882353 35.2039403,5.40441176 37.3792477,5.40441176 C38.4218507,5.40441176 39.2456359,5.86764705 39.6704,6.38235294 L39.7347582,6.38235294 L39.7347582,5.67463235 Z M37.5465791,12.3915441 C38.846615,12.3915441 39.8763462,11.2977941 39.8634746,9.76654412 C39.8634746,8.23529411 38.846615,7.11580883 37.5465791,7.11580883 C36.2336717,7.11580883 35.1267104,8.23529411 35.1267104,9.76654412 C35.1267104,11.2849265 36.2336717,12.3915441 37.5465791,12.3915441 Z M42.8625672,13.9356618 L42.8625672,1.15808824 L44.7675702,1.15808824 L44.7675702,13.9356618 L42.8625672,13.9356618 Z M50.0063283,12.5073529 C50.9845731,12.5073529 51.6538985,12.03125 52.1558925,11.3106618 L53.6361313,12.3014706 C53.147009,13.0091912 52.0014329,14.2316177 50.0063283,14.2316177 C47.5349732,14.2316177 45.6943284,12.3143382 45.6943284,9.88235295 C45.6943284,7.29595588 47.5607164,5.53308824 49.8003821,5.53308824 C52.0529194,5.53308824 53.1598806,7.32169117 53.5202866,8.29963235 L53.7133611,8.78860294 L47.8953791,11.1948529 C48.3458866,12.0569853 49.0280835,12.5073529 50.0063283,12.5073529 Z M49.8647403,7.20588235 C48.8864955,7.20588235 47.5349732,8.0680147 47.5864598,9.74080882 L51.4736956,8.13235294 C51.2677492,7.57904412 50.6241672,7.20588235 49.8647403,7.20588235 Z" id="Combined-Shape" fill="#3C4043" fill-rule="nonzero"></path>
                    </g>
                    <path d="M41.0360616,9.29272462 L45.0505485,9.29272462 L45.0505485,10.2058824 L39.9131689,10.2058824 L39.9131689,1.73736213 L41.0360616,1.73736213 L41.0360616,9.29272462 Z M47.623311,10.2058824 L46.546963,10.2058824 L46.546963,3.9126551 L47.623311,3.9126551 L47.623311,10.2058824 Z M46.4596915,2.24337948 C46.4596915,2.06888986 46.5130236,1.92154529 46.6196893,1.80134133 C46.726355,1.68113739 46.8844116,1.62103631 47.0938642,1.62103631 C47.3033168,1.62103631 47.4623432,1.68113739 47.5709481,1.80134133 C47.6795532,1.92154529 47.7338549,2.06888986 47.7338549,2.24337948 C47.7338549,2.4178691 47.6795532,2.56327493 47.5709481,2.67960133 C47.4623432,2.79592775 47.3033168,2.85409007 47.0938642,2.85409007 C46.8844116,2.85409007 46.726355,2.79592775 46.6196893,2.67960133 C46.5130236,2.56327493 46.4596915,2.4178691 46.4596915,2.24337948 Z M53.3087554,8.53660669 C53.3087554,8.24579075 53.1991824,8.01992701 52.9800329,7.85900874 C52.7608835,7.69809059 52.3788323,7.55947034 51.8338679,7.44314401 C51.2889033,7.32681756 50.8564291,7.18722796 50.5364322,7.02437097 C50.2164353,6.86151399 49.979835,6.66763956 49.8266244,6.44274187 C49.6734136,6.21784412 49.5968095,5.95029739 49.5968095,5.64009364 C49.5968095,5.12437989 49.814986,4.68816241 50.2513455,4.33142808 C50.687705,3.97469376 51.2452669,3.79632927 51.9240483,3.79632927 C52.6377385,3.79632927 53.2166334,3.98051 53.6607503,4.34887695 C54.1048673,4.71724392 54.3269224,5.18835881 54.3269224,5.76223575 L53.2447564,5.76223575 C53.2447564,5.46754218 53.1196685,5.21356667 52.8694891,5.00030158 C52.6193096,4.7870365 52.3041659,4.68040556 51.9240483,4.68040556 C51.5322945,4.68040556 51.2258778,4.76571031 51.0047891,4.93632238 C50.7837002,5.10693444 50.6731575,5.32989005 50.6731575,5.60519589 C50.6731575,5.86499154 50.7759428,6.06080471 50.9815166,6.19264132 C51.1870903,6.3244779 51.5584752,6.45049629 52.0956822,6.57070029 C52.6328891,6.69090416 53.0682723,6.83437131 53.4018449,7.00110584 C53.7354175,7.16784037 53.9826841,7.3685004 54.1436524,7.60309201 C54.3046205,7.8376835 54.3851033,8.12364831 54.3851033,8.46099491 C54.3851033,9.02323921 54.1601391,9.47399732 53.7102041,9.81328263 C53.260269,10.1525681 52.6765258,10.3222081 51.9589569,10.3222081 C51.4547193,10.3222081 51.0086697,10.233026 50.6207946,10.0546588 C50.2329195,9.87629163 49.9294118,9.6271629 49.7102625,9.30726531 C49.491113,8.98736772 49.3815399,8.64130184 49.3815399,8.26905734 L50.4578878,8.26905734 C50.4772816,8.62966921 50.6217629,8.91563401 50.8913361,9.12696037 C51.1609093,9.33828659 51.5167793,9.44394818 51.9589569,9.44394818 C52.3662257,9.44394818 52.6930056,9.36155159 52.9393063,9.19675576 C53.1856069,9.03196007 53.3087554,8.81191259 53.3087554,8.53660669 Z M57.5454937,2.38878676 L57.5454937,3.9126551 L58.7207493,3.9126551 L58.7207493,4.74438477 L57.5454937,4.74438477 L57.5454937,8.64711624 C57.5454937,8.89915687 57.597856,9.0881844 57.7025822,9.21420465 C57.8073086,9.3402249 57.9857284,9.40323416 58.2378472,9.40323416 C58.3619673,9.40323416 58.5326296,9.37996916 58.7498398,9.33343863 L58.7498398,10.2058824 C58.4666909,10.2834332 58.1913038,10.3222081 57.9236699,10.3222081 C57.4427049,10.3222081 57.0800471,10.1768023 56.8356859,9.88598635 C56.5913245,9.59517028 56.4691457,9.18221772 56.4691457,8.64711624 L56.4691457,4.74438477 L55.3229805,4.74438477 L55.3229805,3.9126551 L56.4691457,3.9126551 L56.4691457,2.38878676 L57.5454937,2.38878676 Z M62.8876704,10.3222081 C62.0343452,10.3222081 61.3400592,10.0420596 60.8047916,9.48175413 C60.269524,8.92144854 60.0018942,8.1721239 60.0018942,7.23375743 L60.0018942,7.0360036 C60.0018942,6.41171847 60.1211641,5.85432949 60.3597072,5.36381979 C60.5982503,4.8733101 60.9318179,4.48943871 61.3604198,4.21219411 C61.7890218,3.93494949 62.2534953,3.79632927 62.7538542,3.79632927 C63.5722705,3.79632927 64.2083761,4.06581475 64.6621899,4.60479378 C65.1160038,5.14377279 65.3429073,5.91539308 65.3429073,6.91967768 L65.3429073,7.36753224 L61.0782422,7.36753224 C61.0937572,7.98793969 61.2750861,8.48910509 61.6222342,8.87104351 C61.9693825,9.25298181 62.4105837,9.44394818 62.9458513,9.44394818 C63.3259689,9.44394818 63.6479003,9.36639835 63.9116554,9.21129659 C64.1754104,9.05619469 64.4061927,8.85068776 64.604009,8.59476959 L65.2614539,9.10660329 C64.7339438,9.91701054 63.9426906,10.3222081 62.8876704,10.3222081 Z M62.7538542,4.68040556 C62.319434,4.68040556 61.954837,4.83841322 61.6600519,5.15443331 C61.3652668,5.47045338 61.1829683,5.91345647 61.1131507,6.48345588 L64.2665593,6.48345588 L64.2665593,6.40202785 C64.2355294,5.85529368 64.0881391,5.43167803 63.8243839,5.13116814 C63.5606289,4.83065825 63.2037892,4.68040556 62.7538542,4.68040556 Z M67.9040335,3.9126551 L67.9389421,4.70367073 C68.4199073,4.0987734 69.0482554,3.79632927 69.8240055,3.79632927 C71.1544171,3.79632927 71.8254309,4.54662335 71.8370672,6.04723404 L71.8370672,10.2058824 L70.7607193,10.2058824 L70.7607193,6.04141773 C70.7568405,5.58774474 70.6530854,5.25234196 70.449451,5.03519934 C70.2458166,4.81805671 69.9287335,4.70948702 69.4981922,4.70948702 C69.1491046,4.70948702 68.8426879,4.80254675 68.5789328,4.988669 C68.3151778,5.17479125 68.1096071,5.41907305 67.9622145,5.72152172 L67.9622145,10.2058824 L66.8858667,10.2058824 L66.8858667,3.9126551 L67.9040335,3.9126551 Z M76.7207778,7.00110584 C76.7207778,6.38457579 76.8419869,5.83009495 77.0844089,5.33764648 C77.3268308,4.84519802 77.664277,4.46520412 78.0967577,4.19765338 C78.5292384,3.93010264 79.0228021,3.79632927 79.5774634,3.79632927 C80.4346673,3.79632927 81.1279836,4.09295717 81.6574331,4.68622185 C82.1868826,5.27948653 82.4516034,6.06855551 82.4516034,7.05345249 L82.4516034,7.12906426 C82.4516034,7.74171663 82.3342729,8.29135074 82.0996085,8.77798285 C81.864944,9.26461497 81.5294372,9.64363951 81.0930777,9.91506774 C80.6567182,10.1864961 80.1553972,10.3222081 79.5890996,10.3222081 C78.7357744,10.3222081 78.0443975,10.0255803 77.514948,9.43231554 C76.9854986,8.8390509 76.7207778,8.0538594 76.7207778,7.07671762 L76.7207778,7.00110584 Z M77.8029439,7.12906426 C77.8029439,7.82702274 77.9648792,8.38731985 78.288755,8.80997243 C78.6126307,9.232625 79.0460745,9.44394818 79.5890996,9.44394818 C80.1360035,9.44394818 80.570417,9.22971694 80.8923534,8.80124799 C81.2142897,8.37277903 81.3752554,7.77273765 81.3752554,7.00110584 C81.3752554,6.31090246 81.2113806,5.75157469 80.8836262,5.32310576 C80.5558718,4.89463682 80.1204885,4.68040556 79.5774634,4.68040556 C79.0460745,4.68040556 78.6174791,4.89172869 78.291664,5.31438132 C77.9658489,5.73703393 77.8029439,6.34192215 77.8029439,7.12906426 Z M85.1174554,3.9126551 L85.152364,4.70367073 C85.633329,4.0987734 86.2616773,3.79632927 87.0374274,3.79632927 C88.3678389,3.79632927 89.0388527,4.54662335 89.050489,6.04723404 L89.050489,10.2058824 L87.974141,10.2058824 L87.974141,6.04141773 C87.9702623,5.58774474 87.8665073,5.25234196 87.6628729,5.03519934 C87.4592384,4.81805671 87.1421553,4.70948702 86.7116139,4.70948702 C86.3625265,4.70948702 86.0561098,4.80254675 85.7923547,4.988669 C85.5285997,5.17479125 85.3230289,5.41907305 85.1756364,5.72152172 L85.1756364,10.2058824 L84.0992884,10.2058824 L84.0992884,3.9126551 L85.1174554,3.9126551 Z" id="Listen-on" fill="#5F6368" fill-rule="nonzero"></path>
                </g>
            </g>
        </g>
    </g>
</svg>