<?xml version="1.0" encoding="UTF-8"?>
<svg width="148px" height="45px" viewBox="0 0 148 45" version="1.1" xmlns="http://www.w3.org/2000/svg" xmlns:xlink="http://www.w3.org/1999/xlink">
    <!-- Generator: Sketch 52.5 (67469) - http://www.bohemiancoding.com/sketch -->
    <title>discover-spotify</title>
    <desc>Created with Sketch.</desc>
    <g id="Page-1" stroke="none" stroke-width="1" fill="none" fill-rule="evenodd">
        <g id="Home---Best-Practices" transform="translate(-406.000000, -1723.000000)">
            <g id="discover-spotify" transform="translate(406.000000, 1723.000000)">
                <rect id="Rectangle" fill="#FFFFFF" fill-rule="nonzero" x="0" y="0" width="148" height="45" rx="9"></rect>
                <g id="Spotify_Logo_RGB_Green" transform="translate(21.000000, 7.000000)" fill="#1ED760">
                    <path d="M25.5440004,14.1843497 C20.3704204,11.1214549 11.8367157,10.8398314 6.89791506,12.3341175 C6.10483978,12.5738987 5.26615021,12.1275808 5.02581275,11.3369714 C4.78547529,10.54598 5.23280195,9.71047132 6.0264522,9.47011691 C11.695848,7.75458247 21.1203729,8.08588181 27.0762955,11.6103794 C27.7898332,12.0326236 28.023846,12.9510526 27.6008598,13.6610344 C27.1776818,14.3721624 26.2556216,14.606594 25.5440004,14.1843497 Z M25.3745759,18.7208961 C25.0117699,19.3080257 24.2416934,19.4920172 23.6534991,19.1316767 C19.3402658,16.4885423 12.763184,15.7229619 7.66032528,17.2671149 C6.99853481,17.4663912 6.29956295,17.0943959 6.09870677,16.4360006 C5.89919218,15.7762679 6.27253936,15.0808068 6.93298823,14.880193 C12.7624174,13.1168934 20.0089559,13.9709349 24.9628974,17.0059348 C25.5510917,17.3670396 25.7362321,18.1351038 25.3745759,18.7208961 Z M23.4106701,23.0776543 C23.1224185,23.5490011 22.5064339,23.6968821 22.0353418,23.4095268 C18.2662219,21.1131677 13.5223361,20.5944377 7.93554425,21.8667112 C7.39718068,21.9897544 6.86073367,21.6532964 6.73788175,21.1167978 C6.61445485,20.5801082 6.95062065,20.0453292 7.49013416,19.9228592 C13.6039818,18.5294532 18.8484748,19.1291929 23.0789124,21.7062202 C23.5505794,21.9933845 23.6991134,22.6076448 23.4106701,23.0776543 Z M16.0500958,0 C7.18597503,0 0,7.16324947 0,15.9998089 C0,24.8369416 7.18597503,32 16.0500958,32 C24.9144083,32 32.1,24.8369416 32.1,15.9998089 C32.1,7.16324947 24.9144083,0 16.0500958,0 Z" id="Fill-1"></path>
                    <path d="M43.7727339,14.9948145 C41.0372007,14.3369806 40.5500302,13.8752759 40.5500302,12.9053145 C40.5500302,11.9885826 41.4059367,11.3719588 42.6784449,11.3719588 C43.9119795,11.3719588 45.1349193,11.840341 46.4174547,12.8045789 C46.4562392,12.8337693 46.5048616,12.8454073 46.5527273,12.8377758 C46.600593,12.8305259 46.6427829,12.8041973 46.6709726,12.764132 L48.006671,10.8654191 C48.0615368,10.7871964 48.0465906,10.6795925 47.9726164,10.6196854 C46.4464012,9.38472064 44.7277772,8.78431373 42.7189321,8.78431373 C39.7652601,8.78431373 37.7021167,10.5717978 37.7021167,13.1292985 C37.7021167,15.8718626 39.4818498,16.8429688 42.5573618,17.5925712 C45.1750281,18.2006096 45.6167924,18.7098203 45.6167924,19.6206378 C45.6167924,20.6297106 44.7234258,21.2570185 43.2857526,21.2570185 C41.6891578,21.2570185 40.386568,20.7146109 38.9295971,19.4422519 C38.8934614,19.4109628 38.843893,19.396463 38.7981084,19.399134 C38.7500535,19.4031405 38.7059717,19.4256534 38.6753225,19.4628569 L37.1776753,21.2602619 C37.1148635,21.3348596 37.1228095,21.4462793 37.1952702,21.5107653 C38.8906235,23.0368711 40.9753348,23.8431373 43.225211,23.8431373 C46.4079951,23.8431373 48.4647059,22.0892317 48.4647059,19.374904 C48.4647059,17.0808803 47.1055475,15.8121463 43.7727339,14.9948145" id="Fill-2"></path>
                    <path d="M58.2251437,17.6379233 C58.2251437,19.5486442 57.0502919,20.8819899 55.3680408,20.8819899 C53.704951,20.8819899 52.4504481,19.4880462 52.4504481,17.6379233 C52.4504481,15.7879886 53.704951,14.3938567 55.3680408,14.3938567 C57.0232406,14.3938567 58.2251437,15.7578778 58.2251437,17.6379233 Z M55.9310454,11.9215686 C54.5611989,11.9215686 53.4376318,12.4620582 52.5111256,13.5695725 L52.5111256,12.3229838 C52.5111256,12.2245589 52.4314747,12.1443888 52.3332259,12.1443888 L49.9012413,12.1443888 C49.8029925,12.1443888 49.7235294,12.2245589 49.7235294,12.3229838 L49.7235294,26.1743463 C49.7235294,26.2727711 49.8029925,26.3529412 49.9012413,26.3529412 L52.3332259,26.3529412 C52.4314747,26.3529412 52.5111256,26.2727711 52.5111256,26.1743463 L52.5111256,21.8022524 C53.4378196,22.8440874 54.5615747,23.3529606 55.9310454,23.3529606 C58.4763073,23.3529606 61.0529412,21.3901103 61.0529412,17.6379233 C61.0529412,13.8849835 58.4763073,11.9215686 55.9310454,11.9215686 Z" id="Fill-3"></path>
                    <path d="M67.6723515,20.7776223 C65.885881,20.7776223 64.5390504,19.3936957 64.5390504,17.5587913 C64.5390504,15.7162778 65.8392991,14.3789337 67.6311593,14.3789337 C69.429179,14.3789337 70.7850565,15.7628603 70.7850565,17.5990638 C70.7850565,19.4413917 69.4759533,20.7776223 67.6723515,20.7776223 Z M67.6723515,11.9215686 C64.3136483,11.9215686 61.6823529,14.4151233 61.6823529,17.5990638 C61.6823529,20.7482994 64.2955545,23.2156863 67.6311593,23.2156863 C71.0017967,23.2156863 73.6411765,20.730483 73.6411765,17.5587913 C73.6411765,14.3976781 71.0198904,11.9215686 67.6723515,11.9215686 Z" id="Fill-4"></path>
                    <path d="M80.3890073,12.4023652 L77.7373359,12.4023652 L77.7373359,9.59450863 C77.7373359,9.49369104 77.6587927,9.41176471 77.5614512,9.41176471 L75.1521099,9.41176471 C75.0545823,9.41176471 74.9752946,9.49369104 74.9752946,9.59450863 L74.9752946,12.4023652 L73.8166889,12.4023652 C73.7195336,12.4023652 73.6411765,12.4844843 73.6411765,12.5853019 L73.6411765,14.7302298 C73.6411765,14.8308546 73.7195336,14.9129737 73.8166889,14.9129737 L74.9752946,14.9129737 L74.9752946,20.4631457 C74.9752946,22.7059997 76.0531235,23.8431373 78.1788158,23.8431373 C79.0431636,23.8431373 79.7602893,23.6582729 80.436096,23.2613639 C80.4910018,23.2295572 80.5252481,23.168257 80.5252481,23.1031015 L80.5252481,21.0605333 C80.5252481,20.9974982 80.4934214,20.9381257 80.4414935,20.9049696 C80.3890073,20.8708497 80.3236787,20.8691148 80.2698896,20.8966806 C79.8057029,21.1386043 79.3569642,21.2502169 78.8553671,21.2502169 C78.082405,21.2502169 77.7373359,20.8868495 77.7373359,20.0720197 L77.7373359,14.9129737 L80.3890073,14.9129737 C80.4863488,14.9129737 80.5647059,14.8308546 80.5647059,14.7302298 L80.5647059,12.5853019 C80.5647059,12.4844843 80.4863488,12.4023652 80.3890073,12.4023652" id="Fill-5"></path>
                    <path d="M90.3889662,12.4402587 L90.3889662,12.0969345 C90.3889662,11.0869205 90.7740995,10.6365115 91.6378821,10.6365115 C92.1529837,10.6365115 92.5667443,10.7393744 93.0301257,10.8948202 C93.0871896,10.9128596 93.1467345,10.9038399 93.1931108,10.8694883 C93.2408231,10.8351367 93.2677328,10.780059 93.2677328,10.7217188 L93.2677328,8.62799792 C93.2677328,8.54816402 93.2165852,8.4771579 93.1400548,8.45355316 C92.650527,8.30731895 92.0241606,8.15686275 91.0863285,8.15686275 C88.803965,8.15686275 87.5977992,9.44917405 87.5977992,11.892744 L87.5977992,12.4185731 L86.4107183,12.4185731 C86.3110951,12.4185731 86.2294118,12.500326 86.2294118,12.6005022 L86.2294118,14.746806 C86.2294118,14.8469822 86.3110951,14.9287352 86.4107183,14.9287352 L87.5977992,14.9287352 L87.5977992,23.4513882 C87.5977992,23.5517563 87.6783375,23.6333174 87.7779607,23.6333174 L90.2486921,23.6333174 C90.3485062,23.6333174 90.4298078,23.5517563 90.4298078,23.4513882 L90.4298078,14.9287352 L92.7367908,14.9287352 L96.2707421,23.4490853 C95.8695775,24.3443381 95.4750925,24.5224291 94.9365166,24.5224291 C94.50119,24.5224291 94.0427706,24.3917395 93.5740455,24.1338145 C93.5299593,24.1094422 93.4778575,24.1054121 93.4301453,24.120189 C93.3830056,24.137077 93.343309,24.1721962 93.3232698,24.2184462 L92.4858243,26.0659485 C92.4459369,26.1532669 92.479908,26.255746 92.5634999,26.3010363 C93.4377793,26.7771611 94.2271308,26.9803922 95.2023693,26.9803922 C97.0268859,26.9803922 98.0353321,26.125632 98.9244977,23.8265692 L103.211158,12.6882044 C103.232533,12.6321671 103.226235,12.5690293 103.192073,12.5191331 C103.158102,12.4700045 103.103328,12.4402587 103.043401,12.4402587 L100.471138,12.4402587 C100.394226,12.4402587 100.325139,12.4893873 100.299947,12.5623125 L97.6648942,20.1306049 L94.7786845,12.5573228 C94.7523473,12.4867005 94.6849776,12.4402587 94.6099739,12.4402587 L90.3889662,12.4402587" id="Fill-6"></path>
                    <path d="M84.7695903,11.9215686 L82.0245273,11.9215686 C81.9136392,11.9215686 81.8235294,12.0039792 81.8235294,12.1051546 L81.8235294,23.0322937 C81.8235294,23.1334692 81.9136392,23.2156863 82.0245273,23.2156863 L84.7695903,23.2156863 C84.8802664,23.2156863 84.9705882,23.1334692 84.9705882,23.0322937 L84.9705882,12.1051546 C84.9705882,12.0039792 84.8802664,11.9215686 84.7695903,11.9215686" id="Fill-7"></path>
                    <path d="M83.7123746,7.52941176 C82.6698605,7.52941176 81.8235294,8.37135164 81.8235294,9.41115651 C81.8235294,10.4513668 82.6698605,11.2941176 83.7123746,11.2941176 C84.7546854,11.2941176 85.6,10.4513668 85.6,9.41115651 C85.6,8.37135164 84.7546854,7.52941176 83.7123746,7.52941176" id="Fill-8"></path>
                    <path d="M105.216357,13.1020185 L104.726056,13.1020185 L104.726056,13.7253142 L105.216357,13.7253142 C105.461093,13.7253142 105.607233,13.6060123 105.607233,13.4133573 C105.607233,13.2106059 105.461093,13.1020185 105.216357,13.1020185 Z M105.534266,13.9911163 L106.066941,14.7345381 L105.617775,14.7345381 L105.138223,14.0527247 L104.726056,14.0527247 L104.726056,14.7345381 L104.350063,14.7345381 L104.350063,12.7640995 L105.231653,12.7640995 C105.690741,12.7640995 105.992941,12.9981702 105.992941,13.3925464 C105.992941,13.7156299 105.805668,13.9130241 105.534266,13.9911163 Z M105.116726,12.1082483 C104.152041,12.1082483 103.421965,12.8726869 103.421965,13.8087637 C103.421965,14.7442223 104.146873,15.4985646 105.106804,15.4985646 C106.071282,15.4985646 106.801978,14.7345381 106.801978,13.7980492 C106.801978,12.8623845 106.076656,12.1082483 105.116726,12.1082483 Z M105.106804,15.6862745 C104.047656,15.6862745 103.223529,14.8383863 103.223529,13.8087637 C103.223529,12.778935 104.058404,11.9215686 105.116726,11.9215686 C106.175667,11.9215686 107,12.7692507 107,13.7980492 C107,14.8276718 106.165745,15.6862745 105.106804,15.6862745 Z" id="Fill-9"></path>
                </g>
            </g>
        </g>
    </g>
</svg>